<?xml version="1.0" encoding="UTF-8" standalone="no"?>
<!-- Created with Inkscape (http://www.inkscape.org/) -->
<svg
   xmlns:dc="http://purl.org/dc/elements/1.1/"
   xmlns:cc="http://creativecommons.org/ns#"
   xmlns:rdf="http://www.w3.org/1999/02/22-rdf-syntax-ns#"
   xmlns:svg="http://www.w3.org/2000/svg"
   xmlns="http://www.w3.org/2000/svg"
   xmlns:xlink="http://www.w3.org/1999/xlink"
   xmlns:sodipodi="http://sodipodi.sourceforge.net/DTD/sodipodi-0.dtd"
   xmlns:inkscape="http://www.inkscape.org/namespaces/inkscape"
   width="400"
   height="400"
   id="svg6560"
   sodipodi:version="0.32"
   inkscape:version="0.46"
   version="1.0"
   sodipodi:docname="sprite.svg"
   inkscape:output_extension="org.inkscape.output.svg.inkscape"
   inkscape:export-filename="/home/devseed/fata/public/images/sprite.png"
   inkscape:export-xdpi="90"
   inkscape:export-ydpi="90">
  <defs
     id="defs6562">
    <linearGradient
       inkscape:collect="always"
       id="linearGradient3541">
      <stop
         style="stop-color:#d6ed88;stop-opacity:1;"
         offset="0"
         id="stop3543" />
      <stop
         style="stop-color:#a2ba5e;stop-opacity:1"
         offset="1"
         id="stop3545" />
    </linearGradient>
    <linearGradient
       inkscape:collect="always"
       xlink:href="#linearGradient3541"
       id="linearGradient3623"
       gradientUnits="userSpaceOnUse"
       x1="932.03125"
       y1="106.65625"
       x2="991.625"
       y2="106.65625" />
    <linearGradient
       inkscape:collect="always"
       id="linearGradient3516">
      <stop
         style="stop-color:#b9cd78;stop-opacity:1"
         offset="0"
         id="stop3518" />
      <stop
         style="stop-color:#8ba644;stop-opacity:1"
         offset="1"
         id="stop3520" />
    </linearGradient>
    <linearGradient
       inkscape:collect="always"
       xlink:href="#linearGradient3516"
       id="linearGradient3621"
       gradientUnits="userSpaceOnUse"
       x1="930"
       y1="90"
       x2="982.55951"
       y2="142.55949" />
    <linearGradient
       inkscape:collect="always"
       id="linearGradient3701">
      <stop
         style="stop-color:#e4e4df;stop-opacity:1;"
         offset="0"
         id="stop3703" />
      <stop
         style="stop-color:#aaaa99;stop-opacity:1"
         offset="1"
         id="stop3705" />
    </linearGradient>
    <linearGradient
       inkscape:collect="always"
       xlink:href="#linearGradient3701"
       id="linearGradient3707"
       x1="125"
       y1="5"
       x2="125"
       y2="25"
       gradientUnits="userSpaceOnUse" />
    <linearGradient
       inkscape:collect="always"
       id="linearGradient3710">
      <stop
         style="stop-color:#3a3a35;stop-opacity:1"
         offset="0"
         id="stop3712" />
      <stop
         style="stop-color:#4b4b44;stop-opacity:1"
         offset="1"
         id="stop3714" />
    </linearGradient>
    <linearGradient
       inkscape:collect="always"
       xlink:href="#linearGradient3710"
       id="linearGradient3716"
       x1="1200"
       y1="30"
       x2="1200"
       y2="0"
       gradientUnits="userSpaceOnUse"
       gradientTransform="matrix(0.3333333,0,0,1,-2.405599e-6,0)" />
    <inkscape:perspective
       sodipodi:type="inkscape:persp3d"
       inkscape:vp_x="0 : 526.18109 : 1"
       inkscape:vp_y="0 : 1000 : 0"
       inkscape:vp_z="744.09448 : 526.18109 : 1"
       inkscape:persp3d-origin="372.04724 : 350.78739 : 1"
       id="perspective6568" />
    <linearGradient
       inkscape:collect="always"
       xlink:href="#linearGradient3710"
       id="linearGradient6579"
       gradientUnits="userSpaceOnUse"
       gradientTransform="matrix(0.3333333,0,0,1,-2.405599e-6,30)"
       x1="1200"
       y1="30"
       x2="1200"
       y2="0" />
  </defs>
  <sodipodi:namedview
     id="base"
     pagecolor="#ffffff"
     bordercolor="#666666"
     borderopacity="1.0"
     gridtolerance="10000"
     guidetolerance="10"
     objecttolerance="10"
     inkscape:pageopacity="0.0"
     inkscape:pageshadow="2"
     inkscape:zoom="1"
     inkscape:cx="314.0657"
     inkscape:cy="19.994245"
     inkscape:document-units="px"
     inkscape:current-layer="layer1"
     showgrid="false">
    <inkscape:grid
       type="xygrid"
       id="grid6575"
       visible="true"
       enabled="true" />
  </sodipodi:namedview>
  <metadata
     id="metadata6565">
    <rdf:RDF>
      <cc:Work
         rdf:about="">
        <dc:format>image/svg+xml</dc:format>
        <dc:type
           rdf:resource="http://purl.org/dc/dcmitype/StillImage" />
      </cc:Work>
    </rdf:RDF>
  </metadata>
  <g
     inkscape:label="Layer 1"
     inkscape:groupmode="layer"
     id="layer1">
    <rect
       style="fill:url(#linearGradient3716);fill-opacity:1;fill-rule:nonzero;stroke:none;stroke-width:0.97799516;marker:none;visibility:visible;display:inline;overflow:visible;enable-background:accumulate"
       id="rect3302"
       width="400"
       height="30"
       x="0"
       y="0" />
    <rect
       y="30"
       x="0"
       height="30"
       width="400"
       id="rect6577"
       style="fill:url(#linearGradient6579);fill-opacity:1;fill-rule:nonzero;stroke:none;stroke-width:0.97799516;marker:none;visibility:visible;display:inline;overflow:visible;enable-background:accumulate" />
    <g
       style="font-size:39.00000381px;font-style:normal;font-variant:normal;font-weight:normal;font-stretch:normal;text-indent:0;text-align:start;text-decoration:none;line-height:100%;letter-spacing:normal;word-spacing:normal;text-transform:none;direction:ltr;block-progression:tb;writing-mode:lr-tb;text-anchor:start;fill:#1e1e1c;fill-opacity:1;fill-rule:nonzero;stroke:none;stroke-width:2.93398571;marker:none;visibility:visible;display:inline;overflow:visible;enable-background:accumulate;font-family:Arial;-inkscape-font-specification:Arial"
       id="g3684"
       transform="matrix(0.3333333,0,0,0.3333333,-129.99998,34.33333)">
      <path
         style="font-size:32.50000381px;font-style:normal;font-variant:normal;font-weight:normal;font-stretch:normal;text-indent:0;text-align:start;text-decoration:none;line-height:100%;letter-spacing:normal;word-spacing:normal;text-transform:none;direction:ltr;block-progression:tb;writing-mode:lr-tb;text-anchor:start;fill:#1e1e1c;fill-opacity:1;fill-rule:nonzero;stroke:none;stroke-width:2.44498825;marker:none;visibility:visible;display:inline;overflow:visible;enable-background:accumulate;font-family:Arial;-inkscape-font-specification:Arial"
         d="M 125,6 L 125,26 L 145,26 L 145,6 L 125,6 z M 135,7 L 144,7 L 144,16 L 144,25 L 135,25 L 134,18 L 128,23 L 133,17 L 126,16 L 133,15 L 128,9 L 134,14 L 135,7 z M 135,7 L 135,25 L 136,18 L 142,23 L 137,17 L 144,16 L 137,15 L 142,9 L 136,14 L 135,7 z M 190.3125,10.90625 L 189.90625,12.03125 C 189.69708,12.613029 189.54345,12.992158 189.46875,13.15625 L 186.78125,19.6875 C 186.52726,20.269278 186.2662,20.563915 185.9375,20.59375 L 185.5,20.625 L 185.5,21.1875 C 185.88846,21.172584 186.22423,21.171168 186.34375,21.15625 C 186.76209,21.141333 187.05303,21.125 187.1875,21.125 C 187.32195,21.125 187.58166,21.141332 188,21.15625 C 188.13447,21.171169 188.4716,21.172583 188.875,21.1875 L 188.875,20.625 L 188.125,20.59375 C 187.87099,20.578833 187.6875,20.347346 187.6875,20.09375 C 187.68749,19.989329 187.70518,19.838089 187.75,19.71875 L 188.375,18.0625 L 192.125,18.0625 L 192.8125,19.75 C 192.87226,19.899173 192.90625,20.068161 192.90625,20.1875 C 192.90625,20.411263 192.7581,20.578832 192.59375,20.59375 L 191.8125,20.625 L 191.8125,21.1875 C 193.90422,21.142749 193.91446,21.125 194.09375,21.125 C 194.2581,21.125 194.2412,21.142748 196.4375,21.1875 L 196.4375,20.625 L 196.09375,20.59375 C 195.6754,20.534081 195.44423,20.370105 195.25,19.9375 L 191.375,10.90625 L 190.3125,10.90625 z M 150.53125,10.96875 L 150.53125,11.53125 L 151.09375,11.5625 C 151.7661,11.622171 151.8125,11.718517 151.8125,13.03125 L 151.8125,19.125 C 151.81251,20.437731 151.7661,20.53408 151.09375,20.59375 L 150.53125,20.625 L 150.53125,21.1875 C 151.96555,21.142749 151.96611,21.125 152.25,21.125 C 152.5488,21.125 153.25159,21.157665 153.96875,21.1875 L 153.96875,20.625 L 153.40625,20.59375 C 152.73391,20.534081 152.6875,20.45265 152.6875,19.125 L 152.6875,13.25 L 157.5625,19.09375 L 159.375,21.1875 L 160.625,21.375 L 160.71875,21.3125 C 160.68887,20.477126 160.65625,20.1556 160.65625,19.8125 L 160.65625,13.03125 C 160.65625,11.718517 160.70266,11.622171 161.375,11.5625 L 161.9375,11.53125 L 161.9375,10.96875 C 161.93749,10.96875 160.25,11.03125 160.25,11.03125 C 160.08565,11.03125 159.84605,11.013502 158.53125,10.96875 L 158.53125,11.53125 L 159.0625,11.5625 C 159.73484,11.622171 159.78125,11.718517 159.78125,13.03125 L 159.78125,18.375 L 155.125,12.96875 C 154.81124,12.610732 154.54996,12.236729 153.59375,10.96875 L 152.34375,11.03125 L 152.03125,11.03125 C 151.89677,11.03125 151.38288,10.998585 150.53125,10.96875 z M 250.46875,10.96875 L 250.46875,11.53125 L 251.03125,11.5625 C 251.7036,11.622171 251.75,11.718517 251.75,13.03125 L 251.75,19.125 C 251.75,20.452649 251.73347,20.471581 251.03125,20.53125 L 250.46875,20.59375 L 250.46875,21.1875 C 252.27659,21.142749 252.27326,21.125 252.78125,21.125 C 253.25936,21.125 253.24793,21.142748 255.25,21.1875 L 255.25,20.59375 L 254.5625,20.53125 C 253.87522,20.486498 253.84375,20.437732 253.84375,19.125 L 253.84375,16.3125 C 254.2621,16.282666 254.51506,16.28125 254.84375,16.28125 L 255.59375,16.28125 C 256.1615,16.281251 256.42392,16.455898 256.46875,16.84375 L 256.5625,17.59375 L 257.15625,17.59375 C 257.15624,17.593749 257.09375,15.96875 257.09375,15.96875 C 257.09374,15.804659 257.11142,15.601058 257.15625,14.4375 L 256.5625,14.4375 L 256.46875,15.21875 C 256.43887,15.457428 256.22126,15.53125 255.59375,15.53125 L 254.84375,15.53125 C 254.3507,15.53125 254.14256,15.529835 253.84375,15.5 L 253.84375,11.875 C 254.57585,11.845166 255.05451,11.84375 255.5625,11.84375 C 256.56353,11.84375 257.23506,11.945992 257.25,12.125 L 257.34375,13.25 L 257.90625,13.25 L 258.09375,11.125 L 258,11.03125 C 257.43225,10.986498 257.17644,10.96875 256.59375,10.96875 C 256.25012,10.96875 255.69527,10.970165 254.5,11 C 253.81271,11.014917 253.42381,11.03125 253.125,11.03125 C 252.69172,11.03125 252.69493,11.013502 250.46875,10.96875 z M 234.03125,13 C 231.06122,13 229.21875,14.554245 229.21875,17.0625 C 229.21875,19.687965 231.0379,21.34375 233.9375,21.34375 C 235.0175,21.34375 235.6938,21.168053 236.5625,20.6875 L 236.84375,20.125 L 236.6875,19.96875 C 235.92446,20.367258 235.16929,20.5625 234.40625,20.5625 C 232.35188,20.5625 230.96875,19.121485 230.96875,16.90625 C 230.96874,14.890268 232.1452,13.65625 234,13.65625 C 234.88044,13.65625 235.42859,13.851459 236.0625,14.4375 L 236.125,15.46875 L 236.59375,15.46875 C 236.72288,14.343551 236.76935,14.101641 236.875,13.65625 L 236.78125,13.53125 C 235.713,13.109301 235.05256,13 234.03125,13 z M 263.40625,13 C 260.56536,13 258.90625,14.565932 258.90625,17.25 C 258.90624,19.852021 260.46797,21.34375 263.15625,21.34375 C 265.96194,21.34375 267.59375,19.734848 267.59375,17.0625 C 267.59376,14.483919 266.05932,13 263.40625,13 z M 323.4375,13 C 320.59661,13 318.9375,14.565932 318.9375,17.25 C 318.9375,19.852021 320.46796,21.34375 323.15625,21.34375 C 325.96192,21.34375 327.625,19.734848 327.625,17.0625 C 327.625,14.483919 326.09056,13 323.4375,13 z M 175.78125,13.09375 L 175.5,13.71875 C 175.38261,14.00005 175.27364,14.261671 175.15625,14.53125 L 173.40625,18.71875 L 172.4375,14.21875 C 172.41404,14.113263 172.40625,14.000016 172.40625,13.90625 C 172.40625,13.7656 172.56217,13.636721 172.75,13.625 L 173.25,13.59375 L 173.25,13.15625 C 171.81782,13.191412 171.82837,13.1875 171.6875,13.1875 C 171.6875,13.1875 169.84375,13.15625 169.84375,13.15625 L 169.84375,13.59375 L 170.21875,13.625 C 170.44181,13.648442 170.57408,13.796816 170.65625,14.125 L 172.28125,21.15625 L 173.125,21.15625 C 173.47717,20.183421 173.5506,19.945359 173.65625,19.6875 L 175.5,15.53125 L 177.25,19.9375 C 177.33217,20.160196 177.37484,20.31245 177.46875,20.59375 C 177.57441,20.886771 177.59359,20.910113 177.6875,21.15625 L 178.53125,21.15625 C 178.76603,20.089655 178.85532,19.804741 178.9375,19.5 L 180.375,14.4375 C 180.5276,13.898342 180.67543,13.648442 180.875,13.625 L 181.25,13.59375 L 181.25,13.15625 C 180.07609,13.191412 180.08614,13.1875 179.96875,13.1875 C 179.85135,13.1875 179.64897,13.19922 179.34375,13.1875 C 179.26157,13.175779 179.00049,13.167971 178.71875,13.15625 L 178.71875,13.59375 L 179.25,13.625 C 179.52001,13.636721 179.65625,13.710909 179.65625,13.875 C 179.65625,13.992208 179.66022,14.121072 179.625,14.25 L 178.46875,18.65625 L 176.875,14.65625 C 176.68717,14.199138 176.55903,13.796999 176.3125,13.09375 L 175.78125,13.09375 z M 241.28125,13.09375 L 240.9375,13.96875 C 240.77314,14.425862 240.65245,14.746071 240.59375,14.875 L 238.46875,20 C 238.26918,20.457113 238.07076,20.664059 237.8125,20.6875 L 237.46875,20.71875 L 237.46875,21.15625 C 237.77397,21.144529 238.03109,21.167971 238.125,21.15625 C 238.4537,21.144527 238.67559,21.125 238.78125,21.125 C 238.88689,21.125 239.14005,21.144528 239.46875,21.15625 C 239.5744,21.16797 239.80804,21.14453 240.125,21.15625 L 240.125,20.71875 L 239.53125,20.6875 C 239.33168,20.675781 239.1875,20.511754 239.1875,20.3125 C 239.1875,20.230454 239.21478,20.125017 239.25,20.03125 L 239.75,18.71875 L 242.6875,18.71875 L 243.21875,20.0625 C 243.26569,20.17971 243.28125,20.281233 243.28125,20.375 C 243.28125,20.550814 243.19163,20.67578 243.0625,20.6875 L 242.4375,20.71875 L 242.4375,21.15625 C 244.08098,21.121087 244.07788,21.125 244.21875,21.125 C 244.34789,21.125 244.33683,21.121088 246.0625,21.15625 L 246.0625,20.71875 L 245.78125,20.6875 C 245.45257,20.640618 245.30886,20.527403 245.15625,20.1875 L 242.09375,13.09375 L 241.28125,13.09375 z M 300.9375,13.09375 L 300.625,13.96875 C 300.46065,14.425862 300.33995,14.746071 300.28125,14.875 L 298.15625,20 C 297.95668,20.457113 297.75826,20.664059 297.5,20.6875 L 297.15625,20.71875 L 297.15625,21.15625 C 297.46147,21.144529 297.71858,21.167971 297.8125,21.15625 C 298.14118,21.144527 298.3631,21.125 298.46875,21.125 C 298.57442,21.125 298.7963,21.144528 299.125,21.15625 C 299.23065,21.16797 299.4643,21.14453 299.78125,21.15625 L 299.78125,20.71875 L 299.21875,20.6875 C 299.0192,20.675781 298.875,20.511754 298.875,20.3125 C 298.87501,20.230454 298.90228,20.125017 298.9375,20.03125 L 299.40625,18.71875 L 302.375,18.71875 L 302.90625,20.0625 C 302.95322,20.17971 302.96875,20.281233 302.96875,20.375 C 302.96876,20.550814 302.84788,20.67578 302.71875,20.6875 L 302.125,20.71875 L 302.125,21.15625 C 303.76848,21.121087 303.76538,21.125 303.90625,21.125 C 304.03539,21.125 304.02433,21.121088 305.75,21.15625 L 305.75,20.71875 L 305.46875,20.6875 C 305.14005,20.640618 304.96511,20.527403 304.8125,20.1875 L 301.78125,13.09375 L 300.9375,13.09375 z M 167.9375,13.125 C 167.6675,13.125 167.30191,13.144529 166.65625,13.15625 C 165.79929,13.179691 165.49669,13.1875 165.15625,13.1875 C 164.74537,13.1875 164.22882,13.179692 162.9375,13.15625 L 162.9375,13.59375 L 163.375,13.625 C 163.90327,13.671883 163.9375,13.749818 163.9375,14.78125 L 163.9375,20.03125 C 163.93751,20.429759 163.86359,20.593733 163.6875,20.6875 L 163.3125,20.90625 L 163.3125,21.15625 C 164.47468,21.121087 164.48,21.125 164.75,21.125 L 165.15625,21.125 C 166.34191,21.160163 166.80754,21.1875 167.40625,21.1875 C 168.01669,21.187499 168.38162,21.160163 169.0625,21.125 L 169.125,21.03125 L 169.25,19.1875 L 168.78125,19.1875 L 168.53125,20.28125 C 168.53125,20.292972 168.52348,20.300779 168.5,20.3125 C 168.13608,20.429708 167.78241,20.5 167.125,20.5 C 166.6437,20.500001 166.19245,20.460941 165.59375,20.4375 L 165.59375,17.3125 C 165.92244,17.289059 166.11674,17.28125 166.375,17.28125 L 167.15625,17.28125 C 167.60235,17.281251 167.77729,17.414008 167.8125,17.71875 L 167.875,18.3125 L 168.34375,18.3125 C 168.34375,18.3125 168.3125,17.03125 168.3125,17.03125 C 168.3125,16.902321 168.30853,16.894728 168.34375,15.78125 L 167.875,15.78125 L 167.8125,16.46875 C 167.78902,16.656285 167.6493,16.6875 167.15625,16.6875 L 166.375,16.6875 C 165.9876,16.687499 165.82854,16.710942 165.59375,16.6875 L 165.59375,13.875 C 166.25114,13.839837 166.63558,13.8125 167.28125,13.8125 C 167.91517,13.8125 168.42576,13.93357 168.4375,14.0625 L 168.53125,14.9375 L 168.96875,14.9375 L 169.125,13.28125 L 169.0625,13.1875 C 168.62815,13.152338 168.39533,13.125 167.9375,13.125 z M 213.9375,13.125 C 213.6675,13.125 213.33315,13.144529 212.6875,13.15625 C 211.83053,13.179691 211.49669,13.1875 211.15625,13.1875 C 210.74537,13.1875 210.22881,13.179692 208.9375,13.15625 L 208.9375,13.59375 L 209.375,13.625 C 209.90325,13.671883 209.9375,13.749818 209.9375,14.78125 L 209.9375,20.03125 C 209.9375,20.429759 209.86358,20.593733 209.6875,20.6875 L 209.3125,20.90625 L 209.3125,21.15625 C 210.47469,21.121087 210.48,21.125 210.75,21.125 L 211.15625,21.125 C 212.34191,21.160163 212.80755,21.1875 213.40625,21.1875 C 214.01668,21.187499 214.38163,21.160163 215.0625,21.125 L 215.125,21.03125 L 215.25,19.1875 L 214.8125,19.1875 L 214.53125,20.28125 C 214.53125,20.292972 214.52348,20.300779 214.5,20.3125 C 214.13609,20.429708 213.7824,20.5 213.125,20.5 C 212.6437,20.500001 212.19245,20.460941 211.59375,20.4375 L 211.59375,17.3125 C 211.92244,17.289059 212.11673,17.28125 212.375,17.28125 L 213.15625,17.28125 C 213.60233,17.281251 213.77728,17.414008 213.8125,17.71875 L 213.90625,18.3125 L 214.375,18.3125 C 214.37501,18.3125 214.34375,17.03125 214.34375,17.03125 C 214.34375,16.902321 214.33978,16.894728 214.375,15.78125 L 213.90625,15.78125 L 213.8125,16.46875 C 213.78902,16.656285 213.6493,16.6875 213.15625,16.6875 L 212.375,16.6875 C 211.98759,16.687499 211.82853,16.710942 211.59375,16.6875 L 211.59375,13.875 C 212.25113,13.839837 212.6356,13.8125 213.28125,13.8125 C 213.91518,13.8125 214.42576,13.93357 214.4375,14.0625 L 214.53125,14.9375 L 214.96875,14.9375 L 215.125,13.28125 L 215.0625,13.1875 C 214.62816,13.152338 214.39533,13.125 213.9375,13.125 z M 197.125,13.15625 L 197.125,13.59375 L 197.5625,13.625 C 198.09075,13.671883 198.125,13.749818 198.125,14.78125 L 198.125,19.5625 C 198.125,20.593932 198.09076,20.640617 197.5625,20.6875 L 197.125,20.71875 L 197.125,21.15625 C 198.25198,21.121087 198.24571,21.125 198.46875,21.125 C 198.70354,21.125 199.24901,21.132809 199.8125,21.15625 L 199.8125,20.71875 L 199.375,20.6875 C 198.84674,20.640618 198.8125,20.605653 198.8125,19.5625 L 198.8125,14.65625 L 201.5,20.28125 C 201.58217,20.457061 201.72619,20.734284 201.9375,21.25 L 202.34375,21.25 C 202.56681,20.710843 202.59689,20.578283 203.03125,19.6875 L 205.46875,14.6875 L 205.46875,19.5625 C 205.46875,20.605653 205.42674,20.609367 204.875,20.65625 L 204.46875,20.6875 L 204.46875,21.15625 C 205.88919,21.121087 205.88211,21.125 206.28125,21.125 C 206.68038,21.125 206.67331,21.121088 208.09375,21.15625 L 208.09375,20.6875 L 207.6875,20.65625 C 207.13576,20.609368 207.09375,20.605653 207.09375,19.5625 L 207.09375,14.78125 C 207.09374,13.749818 207.15924,13.671883 207.6875,13.625 L 208.09375,13.59375 L 208.09375,13.15625 C 206.86115,13.191412 206.87913,13.1875 206.75,13.1875 C 206.62086,13.1875 206.62712,13.191412 205.40625,13.15625 C 205.0658,13.964987 204.94163,14.199171 204.8125,14.46875 L 202.65625,18.90625 L 200.8125,15.03125 L 199.9375,13.15625 L 198.53125,13.1875 C 198.34341,13.1875 198.07093,13.167971 197.71875,13.15625 C 197.54267,13.15625 197.53588,13.167971 197.125,13.15625 z M 216.125,13.15625 L 216.125,13.59375 L 216.5625,13.625 C 217.09075,13.671883 217.125,13.749818 217.125,14.78125 L 217.125,19.5625 C 217.125,20.605653 217.11424,20.609367 216.5625,20.65625 L 216.125,20.6875 L 216.125,21.15625 C 217.54544,21.121087 217.53836,21.125 217.9375,21.125 C 218.33664,21.125 218.36081,21.121088 219.78125,21.15625 L 219.78125,20.6875 L 219.34375,20.65625 C 218.79201,20.609368 218.78125,20.605653 218.78125,19.5625 L 218.78125,13.84375 C 218.9456,13.773425 219.16353,13.75 219.46875,13.75 C 220.51353,13.75 221.09375,14.300614 221.09375,15.25 C 221.09375,15.871204 220.82506,16.37495 220.34375,16.65625 C 220.05027,16.832062 219.73527,16.886721 219.21875,16.875 L 219.15625,17.09375 L 221.78125,21.15625 L 222.84375,21.125 C 223.44245,21.136721 223.5344,21.132809 223.96875,21.15625 L 223.96875,20.6875 C 223.54615,20.605456 223.43799,20.531316 223.15625,20.15625 L 221.03125,16.96875 C 221.68865,16.69917 221.97603,16.507874 222.28125,16.15625 C 222.62168,15.792903 222.78125,15.367274 222.78125,14.875 C 222.78124,13.73808 222.0104,13.15625 220.53125,13.15625 C 220.40212,13.15625 220.11789,13.144529 219.71875,13.15625 C 219.41353,13.167971 218.47701,13.1875 218.21875,13.1875 C 217.89006,13.1875 217.88588,13.191412 216.125,13.15625 z M 224.59375,13.15625 L 224.59375,13.625 L 225.03125,13.65625 C 225.583,13.703135 225.59375,13.738097 225.59375,14.78125 L 225.59375,19.5625 C 225.59374,20.605653 225.58299,20.609367 225.03125,20.65625 L 224.59375,20.6875 L 224.59375,21.15625 C 226.0142,21.121087 226.00711,21.125 226.40625,21.125 C 226.80538,21.125 226.82956,21.121088 228.25,21.15625 L 228.25,20.6875 L 227.8125,20.65625 C 227.26076,20.609368 227.25,20.605653 227.25,19.5625 L 227.25,14.78125 C 227.25,13.738097 227.26076,13.703135 227.8125,13.65625 L 228.25,13.625 L 228.25,13.15625 C 226.81781,13.191412 226.80538,13.1875 226.40625,13.1875 C 226.00711,13.1875 226.00247,13.191412 224.59375,13.15625 z M 268.46875,13.15625 L 268.46875,13.59375 L 268.90625,13.625 C 269.4345,13.671883 269.46875,13.749818 269.46875,14.78125 L 269.46875,19.0625 C 269.46875,20.457278 270.73085,21.34375 272.75,21.34375 C 274.99218,21.34375 276.09375,20.308969 276.09375,18.1875 L 276.09375,14.78125 C 276.09374,13.749818 276.12799,13.671883 276.65625,13.625 L 277.0625,13.59375 L 277.0625,13.15625 C 277.06251,13.15625 275.75,13.1875 275.75,13.1875 C 275.62087,13.1875 275.40807,13.191412 274.375,13.15625 L 274.375,13.59375 L 274.8125,13.625 C 275.34076,13.671883 275.375,13.749818 275.375,14.78125 L 275.375,17.59375 C 275.375,18.836158 275.24289,19.464771 274.84375,19.875 C 274.51506,20.214903 273.96228,20.375 273.1875,20.375 C 272.37748,20.375 271.84821,20.168036 271.53125,19.78125 C 271.22604,19.406183 271.125,18.883024 271.125,17.6875 L 271.125,14.78125 C 271.12498,13.749818 271.15923,13.671883 271.6875,13.625 L 272.125,13.59375 L 272.125,13.15625 C 270.69281,13.191412 270.68039,13.1875 270.28125,13.1875 C 269.88211,13.1875 269.87746,13.191412 268.46875,13.15625 z M 277.6875,13.15625 L 277.6875,13.59375 L 278.125,13.625 C 278.65325,13.671883 278.6875,13.749818 278.6875,14.78125 L 278.6875,19.5625 C 278.68749,20.593932 278.65326,20.640617 278.125,20.6875 L 277.6875,20.71875 L 277.6875,21.15625 C 278.81445,21.121087 278.80821,21.125 279.03125,21.125 C 279.26604,21.125 279.81152,21.132809 280.375,21.15625 L 280.375,20.71875 L 279.9375,20.6875 C 279.40923,20.640618 279.375,20.605653 279.375,19.5625 L 279.375,14.9375 L 283.21875,19.53125 L 284.65625,21.15625 L 285.59375,21.3125 L 285.6875,21.28125 C 285.66402,20.624883 285.65625,20.363328 285.65625,20.09375 L 285.65625,14.78125 C 285.65624,13.749818 285.69049,13.671883 286.21875,13.625 L 286.65625,13.59375 L 286.65625,13.15625 C 286.65625,13.15625 285.3125,13.1875 285.3125,13.1875 C 285.18338,13.1875 285.0018,13.191412 283.96875,13.15625 L 283.96875,13.59375 L 284.40625,13.625 C 284.93452,13.671883 284.96875,13.749818 284.96875,14.78125 L 284.96875,18.96875 L 281.28125,14.71875 C 281.03472,14.437451 280.84506,14.15252 280.09375,13.15625 L 279.09375,13.1875 L 278.84375,13.1875 C 278.73809,13.1875 278.35663,13.179692 277.6875,13.15625 z M 287.46875,13.15625 L 287.46875,13.59375 L 287.90625,13.625 C 288.43452,13.671883 288.46875,13.749818 288.46875,14.78125 L 288.46875,20.03125 C 288.46874,20.418038 288.42609,20.593733 288.25,20.6875 L 287.875,20.90625 L 287.875,21.15625 C 289.47153,21.121087 289.46445,21.125 289.6875,21.125 C 289.8988,21.125 290.51902,21.144529 290.8125,21.15625 L 291.53125,21.15625 C 292.92824,21.156249 294.18206,20.67984 295.0625,19.8125 C 295.87251,19.027204 296.3125,17.972878 296.3125,16.71875 C 296.3125,15.605273 295.99322,14.699321 295.40625,14.125 C 294.72538,13.445193 293.77229,13.167971 292.1875,13.15625 C 290.35617,13.179692 289.41021,13.1875 289.375,13.1875 C 289.2224,13.1875 289.21791,13.191412 287.46875,13.15625 z M 306.25,13.15625 L 306.1875,13.21875 C 306.2814,13.781349 306.30853,14.171718 306.34375,15.0625 L 306.8125,15.0625 L 306.875,14.25 C 306.87501,14.179675 306.93354,14.058605 306.96875,14 C 307.02744,13.917954 307.19446,13.875 307.6875,13.875 L 309.0625,13.875 L 309.0625,19.5625 C 309.06249,20.605653 309.05174,20.609367 308.5,20.65625 L 308.0625,20.6875 L 308.0625,21.15625 C 309.48294,21.121087 309.50711,21.125 309.90625,21.125 C 310.30538,21.125 310.2983,21.121088 311.71875,21.15625 L 311.71875,20.6875 L 311.28125,20.65625 C 310.7295,20.609368 310.71875,20.605653 310.71875,19.5625 L 310.71875,13.875 L 312.09375,13.875 C 312.58679,13.875 312.7381,13.886704 312.84375,13.96875 L 312.9375,14.25 L 313,15.0625 L 313.46875,15.0625 C 313.49222,14.171718 313.53109,13.781349 313.625,13.21875 L 313.5625,13.15625 C 310.32247,13.191412 310.30538,13.1875 309.90625,13.1875 C 309.49536,13.1875 309.49003,13.191412 306.25,13.15625 z M 314.28125,13.15625 L 314.28125,13.625 L 314.71875,13.65625 C 315.27048,13.703135 315.28125,13.738097 315.28125,14.78125 L 315.28125,19.5625 C 315.28125,20.605653 315.27049,20.609367 314.71875,20.65625 L 314.28125,20.6875 L 314.28125,21.15625 C 315.70169,21.121087 315.69461,21.125 316.09375,21.125 C 316.49288,21.125 316.51706,21.121088 317.9375,21.15625 L 317.9375,20.6875 L 317.5,20.65625 C 316.94826,20.609368 316.9375,20.605653 316.9375,19.5625 L 316.9375,14.78125 C 316.93749,13.738097 316.94826,13.703135 317.5,13.65625 L 317.9375,13.625 L 317.9375,13.15625 C 316.50531,13.191412 316.49288,13.1875 316.09375,13.1875 C 315.69461,13.1875 315.68995,13.191412 314.28125,13.15625 z M 328.59375,13.15625 L 328.59375,13.59375 L 329.03125,13.625 C 329.55952,13.671883 329.59375,13.749818 329.59375,14.78125 L 329.59375,19.5625 C 329.59375,20.593932 329.55952,20.640617 329.03125,20.6875 L 328.59375,20.71875 L 328.59375,21.15625 C 329.72073,21.121087 329.71446,21.125 329.9375,21.125 C 330.17229,21.125 330.71777,21.132809 331.28125,21.15625 L 331.28125,20.71875 L 330.84375,20.6875 C 330.31548,20.640618 330.28125,20.605653 330.28125,19.5625 L 330.28125,14.9375 L 334.125,19.53125 L 335.53125,21.15625 L 336.5,21.3125 L 336.59375,21.28125 C 336.57028,20.624883 336.5625,20.363328 336.5625,20.09375 L 336.5625,14.78125 C 336.56251,13.749818 336.59673,13.671883 337.125,13.625 L 337.5625,13.59375 L 337.5625,13.15625 C 337.56249,13.15625 336.21875,13.1875 336.21875,13.1875 C 336.08962,13.1875 335.90806,13.191412 334.875,13.15625 L 334.875,13.59375 L 335.28125,13.625 C 335.80953,13.671883 335.84375,13.749818 335.84375,14.78125 L 335.84375,18.96875 L 332.1875,14.71875 C 331.94098,14.437451 331.75131,14.15252 331,13.15625 L 330,13.1875 L 329.75,13.1875 C 329.64434,13.1875 329.26289,13.179692 328.59375,13.15625 z M 190.25,13.4375 L 191.78125,17.21875 L 188.75,17.21875 L 190.25,13.4375 z M 263.3125,13.65625 C 263.93467,13.65625 264.43287,13.851492 264.84375,14.25 C 265.48942,14.882925 265.84375,15.988046 265.84375,17.3125 C 265.84375,19.516015 264.93267,20.6875 263.21875,20.6875 C 262.5731,20.687499 262.11011,20.48445 261.6875,20.0625 C 261.05358,19.441296 260.6875,18.316644 260.6875,16.96875 C 260.68751,15.773225 260.97174,14.839937 261.5,14.3125 C 261.95784,13.86711 262.57293,13.65625 263.3125,13.65625 z M 323.34375,13.65625 C 323.96593,13.65625 324.46413,13.851492 324.875,14.25 C 325.52067,14.882925 325.875,15.988046 325.875,17.3125 C 325.87501,19.516015 324.96393,20.6875 323.25,20.6875 C 322.60436,20.687499 322.11012,20.48445 321.6875,20.0625 C 321.05357,19.441296 320.71875,18.316644 320.71875,16.96875 C 320.71874,15.773225 321.00298,14.839937 321.53125,14.3125 C 321.98908,13.86711 322.60418,13.65625 323.34375,13.65625 z M 290.875,13.75 C 292.24847,13.75 293.17478,14.03115 293.75,14.59375 C 294.27826,15.109466 294.53125,15.902138 294.53125,17.0625 C 294.53125,18.246303 294.25098,19.1249 293.6875,19.6875 C 293.10054,20.26182 292.26403,20.53125 290.9375,20.53125 C 290.64401,20.531251 290.41848,20.515634 290.125,20.46875 L 290.125,13.78125 C 290.40675,13.746088 290.60499,13.75 290.875,13.75 z M 241.1875,15.09375 L 242.4375,18.0625 L 240.03125,18.0625 L 241.1875,15.09375 z M 300.875,15.09375 L 302.09375,18.0625 L 299.6875,18.0625 L 300.875,15.09375 z"
         transform="matrix(3.0000003,0,0,3.0000003,14.999932,-12.999991)"
         id="path3686"
         inkscape:connector-curvature="0" />
    </g>
    <g
       transform="matrix(0.3333333,0,0,0.3333333,-129.99998,33.33333)"
       id="g2912"
       style="font-size:39.00000381px;font-style:normal;font-variant:normal;font-weight:normal;font-stretch:normal;text-indent:0;text-align:start;text-decoration:none;line-height:100%;letter-spacing:normal;word-spacing:normal;text-transform:none;direction:ltr;block-progression:tb;writing-mode:lr-tb;text-anchor:start;fill:#e4e4df;fill-opacity:1;fill-rule:nonzero;stroke:none;stroke-width:2.93398571;marker:none;visibility:visible;display:inline;overflow:visible;enable-background:accumulate;font-family:Arial;-inkscape-font-specification:Arial">
      <path
         style="font-size:32.50000381px;font-style:normal;font-variant:normal;font-weight:normal;font-stretch:normal;text-indent:0;text-align:start;text-decoration:none;line-height:100%;letter-spacing:normal;word-spacing:normal;text-transform:none;direction:ltr;block-progression:tb;writing-mode:lr-tb;text-anchor:start;fill:url(#linearGradient3707);fill-opacity:1;fill-rule:nonzero;stroke:none;stroke-width:2.44498825;marker:none;visibility:visible;display:inline;overflow:visible;enable-background:accumulate;font-family:Arial;-inkscape-font-specification:Arial"
         d="M 125,5 L 125,25 L 145,25 L 145,5 L 125,5 z M 135,6 L 144,6 L 144,15 L 144,24 L 135,24 L 134,17 L 128,22 L 133,16 L 126,15 L 133,14 L 128,8 L 134,13 L 135,6 z M 135,6 L 135,24 L 136,17 L 142,22 L 137,16 L 144,15 L 137,14 L 142,8 L 136,13 L 135,6 z M 190.3125,9.90625 L 189.90625,11.03125 C 189.69708,11.613029 189.54345,11.992158 189.46875,12.15625 L 186.78125,18.6875 C 186.52726,19.269278 186.2662,19.563915 185.9375,19.59375 L 185.5,19.625 L 185.5,20.1875 C 185.88846,20.172584 186.22423,20.171168 186.34375,20.15625 C 186.76209,20.141333 187.05303,20.125 187.1875,20.125 C 187.32195,20.125 187.58166,20.141332 188,20.15625 C 188.13447,20.171169 188.4716,20.172583 188.875,20.1875 L 188.875,19.625 L 188.125,19.59375 C 187.87099,19.578833 187.6875,19.347346 187.6875,19.09375 C 187.68749,18.989329 187.70518,18.838089 187.75,18.71875 L 188.375,17.0625 L 192.125,17.0625 L 192.8125,18.75 C 192.87226,18.899173 192.90625,19.068161 192.90625,19.1875 C 192.90625,19.411263 192.7581,19.578832 192.59375,19.59375 L 191.8125,19.625 L 191.8125,20.1875 C 193.90422,20.142749 193.91446,20.125 194.09375,20.125 C 194.2581,20.125 194.2412,20.142748 196.4375,20.1875 L 196.4375,19.625 L 196.09375,19.59375 C 195.6754,19.534081 195.44423,19.370105 195.25,18.9375 L 191.375,9.90625 L 190.3125,9.90625 z M 150.53125,9.96875 L 150.53125,10.53125 L 151.09375,10.5625 C 151.7661,10.622171 151.8125,10.718517 151.8125,12.03125 L 151.8125,18.125 C 151.81251,19.437731 151.7661,19.53408 151.09375,19.59375 L 150.53125,19.625 L 150.53125,20.1875 C 151.96555,20.142749 151.96611,20.125 152.25,20.125 C 152.5488,20.125 153.25159,20.157665 153.96875,20.1875 L 153.96875,19.625 L 153.40625,19.59375 C 152.73391,19.534081 152.6875,19.45265 152.6875,18.125 L 152.6875,12.25 L 157.5625,18.09375 L 159.375,20.1875 L 160.625,20.375 L 160.71875,20.3125 C 160.68887,19.477126 160.65625,19.1556 160.65625,18.8125 L 160.65625,12.03125 C 160.65625,10.718517 160.70266,10.622171 161.375,10.5625 L 161.9375,10.53125 L 161.9375,9.96875 C 161.93749,9.9687504 160.25,10.03125 160.25,10.03125 C 160.08565,10.03125 159.84605,10.013502 158.53125,9.96875 L 158.53125,10.53125 L 159.0625,10.5625 C 159.73484,10.622171 159.78125,10.718517 159.78125,12.03125 L 159.78125,17.375 L 155.125,11.96875 C 154.81124,11.610732 154.54996,11.236729 153.59375,9.96875 L 152.34375,10.03125 L 152.03125,10.03125 C 151.89677,10.03125 151.38288,9.9985848 150.53125,9.96875 z M 250.46875,9.96875 L 250.46875,10.53125 L 251.03125,10.5625 C 251.7036,10.622171 251.75,10.718517 251.75,12.03125 L 251.75,18.125 C 251.75,19.452649 251.73347,19.471581 251.03125,19.53125 L 250.46875,19.59375 L 250.46875,20.1875 C 252.27659,20.142749 252.27326,20.125 252.78125,20.125 C 253.25936,20.125 253.24793,20.142748 255.25,20.1875 L 255.25,19.59375 L 254.5625,19.53125 C 253.87522,19.486498 253.84375,19.437732 253.84375,18.125 L 253.84375,15.3125 C 254.2621,15.282666 254.51506,15.28125 254.84375,15.28125 L 255.59375,15.28125 C 256.1615,15.28125 256.42392,15.455898 256.46875,15.84375 L 256.5625,16.59375 L 257.15625,16.59375 C 257.15624,16.593749 257.09375,14.96875 257.09375,14.96875 C 257.09374,14.804659 257.11142,14.601058 257.15625,13.4375 L 256.5625,13.4375 L 256.46875,14.21875 C 256.43887,14.457428 256.22126,14.53125 255.59375,14.53125 L 254.84375,14.53125 C 254.3507,14.53125 254.14256,14.529835 253.84375,14.5 L 253.84375,10.875 C 254.57585,10.845166 255.05451,10.84375 255.5625,10.84375 C 256.56353,10.84375 257.23506,10.945992 257.25,11.125 L 257.34375,12.25 L 257.90625,12.25 L 258.09375,10.125 L 258,10.03125 C 257.43225,9.9864974 257.17644,9.96875 256.59375,9.96875 C 256.25012,9.9687503 255.69527,9.9701652 254.5,10 C 253.81271,10.014917 253.42381,10.03125 253.125,10.03125 C 252.69172,10.03125 252.69493,10.013502 250.46875,9.96875 z M 234.03125,12 C 231.06122,12 229.21875,13.554245 229.21875,16.0625 C 229.21875,18.687965 231.0379,20.34375 233.9375,20.34375 C 235.0175,20.34375 235.6938,20.168053 236.5625,19.6875 L 236.84375,19.125 L 236.6875,18.96875 C 235.92446,19.367258 235.16929,19.5625 234.40625,19.5625 C 232.35188,19.5625 230.96875,18.121485 230.96875,15.90625 C 230.96874,13.890268 232.1452,12.65625 234,12.65625 C 234.88044,12.65625 235.42859,12.851459 236.0625,13.4375 L 236.125,14.46875 L 236.59375,14.46875 C 236.72288,13.343551 236.76935,13.101641 236.875,12.65625 L 236.78125,12.53125 C 235.713,12.109301 235.05256,12 234.03125,12 z M 263.40625,12 C 260.56536,12 258.90625,13.565932 258.90625,16.25 C 258.90624,18.852022 260.46797,20.34375 263.15625,20.34375 C 265.96194,20.34375 267.59375,18.734848 267.59375,16.0625 C 267.59376,13.483919 266.05932,12 263.40625,12 z M 323.4375,12 C 320.59661,12 318.9375,13.565932 318.9375,16.25 C 318.9375,18.852022 320.46796,20.34375 323.15625,20.34375 C 325.96192,20.34375 327.625,18.734848 327.625,16.0625 C 327.625,13.483919 326.09056,12 323.4375,12 z M 175.78125,12.09375 L 175.5,12.71875 C 175.38261,13.00005 175.27364,13.261671 175.15625,13.53125 L 173.40625,17.71875 L 172.4375,13.21875 C 172.41404,13.113263 172.40625,13.000016 172.40625,12.90625 C 172.40625,12.7656 172.56217,12.636721 172.75,12.625 L 173.25,12.59375 L 173.25,12.15625 C 171.81782,12.191412 171.82837,12.1875 171.6875,12.1875 C 171.6875,12.1875 169.84375,12.15625 169.84375,12.15625 L 169.84375,12.59375 L 170.21875,12.625 C 170.44181,12.648442 170.57408,12.796816 170.65625,13.125 L 172.28125,20.15625 L 173.125,20.15625 C 173.47717,19.183421 173.5506,18.945359 173.65625,18.6875 L 175.5,14.53125 L 177.25,18.9375 C 177.33217,19.160196 177.37484,19.31245 177.46875,19.59375 C 177.57441,19.886771 177.59359,19.910113 177.6875,20.15625 L 178.53125,20.15625 C 178.76603,19.089655 178.85532,18.804741 178.9375,18.5 L 180.375,13.4375 C 180.5276,12.898342 180.67543,12.648442 180.875,12.625 L 181.25,12.59375 L 181.25,12.15625 C 180.07609,12.191412 180.08614,12.1875 179.96875,12.1875 C 179.85135,12.1875 179.64897,12.19922 179.34375,12.1875 C 179.26157,12.175779 179.00049,12.167971 178.71875,12.15625 L 178.71875,12.59375 L 179.25,12.625 C 179.52001,12.636721 179.65625,12.710909 179.65625,12.875 C 179.65625,12.992208 179.66022,13.121072 179.625,13.25 L 178.46875,17.65625 L 176.875,13.65625 C 176.68717,13.199138 176.55903,12.796999 176.3125,12.09375 L 175.78125,12.09375 z M 241.28125,12.09375 L 240.9375,12.96875 C 240.77314,13.425862 240.65245,13.746071 240.59375,13.875 L 238.46875,19 C 238.26918,19.457113 238.07076,19.664059 237.8125,19.6875 L 237.46875,19.71875 L 237.46875,20.15625 C 237.77397,20.144529 238.03109,20.167971 238.125,20.15625 C 238.4537,20.144527 238.67559,20.125 238.78125,20.125 C 238.88689,20.125 239.14005,20.144528 239.46875,20.15625 C 239.5744,20.16797 239.80804,20.14453 240.125,20.15625 L 240.125,19.71875 L 239.53125,19.6875 C 239.33168,19.675781 239.1875,19.511754 239.1875,19.3125 C 239.1875,19.230454 239.21478,19.125017 239.25,19.03125 L 239.75,17.71875 L 242.6875,17.71875 L 243.21875,19.0625 C 243.26569,19.17971 243.28125,19.281233 243.28125,19.375 C 243.28125,19.550814 243.19163,19.67578 243.0625,19.6875 L 242.4375,19.71875 L 242.4375,20.15625 C 244.08098,20.121087 244.07788,20.125 244.21875,20.125 C 244.34789,20.125 244.33683,20.121088 246.0625,20.15625 L 246.0625,19.71875 L 245.78125,19.6875 C 245.45257,19.640618 245.30886,19.527403 245.15625,19.1875 L 242.09375,12.09375 L 241.28125,12.09375 z M 300.9375,12.09375 L 300.625,12.96875 C 300.46065,13.425862 300.33995,13.746071 300.28125,13.875 L 298.15625,19 C 297.95668,19.457113 297.75826,19.664059 297.5,19.6875 L 297.15625,19.71875 L 297.15625,20.15625 C 297.46147,20.144529 297.71858,20.167971 297.8125,20.15625 C 298.14118,20.144527 298.3631,20.125 298.46875,20.125 C 298.57442,20.125 298.7963,20.144528 299.125,20.15625 C 299.23065,20.16797 299.4643,20.14453 299.78125,20.15625 L 299.78125,19.71875 L 299.21875,19.6875 C 299.0192,19.675781 298.875,19.511754 298.875,19.3125 C 298.87501,19.230454 298.90228,19.125017 298.9375,19.03125 L 299.40625,17.71875 L 302.375,17.71875 L 302.90625,19.0625 C 302.95322,19.17971 302.96875,19.281233 302.96875,19.375 C 302.96876,19.550814 302.84788,19.67578 302.71875,19.6875 L 302.125,19.71875 L 302.125,20.15625 C 303.76848,20.121087 303.76538,20.125 303.90625,20.125 C 304.03539,20.125 304.02433,20.121088 305.75,20.15625 L 305.75,19.71875 L 305.46875,19.6875 C 305.14005,19.640618 304.96511,19.527403 304.8125,19.1875 L 301.78125,12.09375 L 300.9375,12.09375 z M 167.9375,12.125 C 167.6675,12.125 167.30191,12.144529 166.65625,12.15625 C 165.79929,12.179691 165.49669,12.1875 165.15625,12.1875 C 164.74537,12.1875 164.22882,12.179692 162.9375,12.15625 L 162.9375,12.59375 L 163.375,12.625 C 163.90327,12.671883 163.9375,12.749818 163.9375,13.78125 L 163.9375,19.03125 C 163.93751,19.429759 163.86359,19.593733 163.6875,19.6875 L 163.3125,19.90625 L 163.3125,20.15625 C 164.47468,20.121087 164.48,20.125 164.75,20.125 L 165.15625,20.125 C 166.34191,20.160163 166.80754,20.1875 167.40625,20.1875 C 168.01669,20.187499 168.38162,20.160163 169.0625,20.125 L 169.125,20.03125 L 169.25,18.1875 L 168.78125,18.1875 L 168.53125,19.28125 C 168.53125,19.292972 168.52348,19.300779 168.5,19.3125 C 168.13608,19.429708 167.78241,19.5 167.125,19.5 C 166.6437,19.500001 166.19245,19.460941 165.59375,19.4375 L 165.59375,16.3125 C 165.92244,16.289058 166.11674,16.28125 166.375,16.28125 L 167.15625,16.28125 C 167.60235,16.28125 167.77729,16.414008 167.8125,16.71875 L 167.875,17.3125 L 168.34375,17.3125 C 168.34375,17.3125 168.3125,16.03125 168.3125,16.03125 C 168.3125,15.902321 168.30853,15.894728 168.34375,14.78125 L 167.875,14.78125 L 167.8125,15.46875 C 167.78902,15.656284 167.6493,15.6875 167.15625,15.6875 L 166.375,15.6875 C 165.9876,15.6875 165.82854,15.710942 165.59375,15.6875 L 165.59375,12.875 C 166.25114,12.839837 166.63558,12.8125 167.28125,12.8125 C 167.91517,12.8125 168.42576,12.93357 168.4375,13.0625 L 168.53125,13.9375 L 168.96875,13.9375 L 169.125,12.28125 L 169.0625,12.1875 C 168.62815,12.152338 168.39533,12.125 167.9375,12.125 z M 213.9375,12.125 C 213.6675,12.125 213.33315,12.144529 212.6875,12.15625 C 211.83053,12.179691 211.49669,12.1875 211.15625,12.1875 C 210.74537,12.1875 210.22881,12.179692 208.9375,12.15625 L 208.9375,12.59375 L 209.375,12.625 C 209.90325,12.671883 209.9375,12.749818 209.9375,13.78125 L 209.9375,19.03125 C 209.9375,19.429759 209.86358,19.593733 209.6875,19.6875 L 209.3125,19.90625 L 209.3125,20.15625 C 210.47469,20.121087 210.48,20.125 210.75,20.125 L 211.15625,20.125 C 212.34191,20.160163 212.80755,20.1875 213.40625,20.1875 C 214.01668,20.187499 214.38163,20.160163 215.0625,20.125 L 215.125,20.03125 L 215.25,18.1875 L 214.8125,18.1875 L 214.53125,19.28125 C 214.53125,19.292972 214.52348,19.300779 214.5,19.3125 C 214.13609,19.429708 213.7824,19.5 213.125,19.5 C 212.6437,19.500001 212.19245,19.460941 211.59375,19.4375 L 211.59375,16.3125 C 211.92244,16.289058 212.11673,16.28125 212.375,16.28125 L 213.15625,16.28125 C 213.60233,16.28125 213.77728,16.414008 213.8125,16.71875 L 213.90625,17.3125 L 214.375,17.3125 C 214.37501,17.3125 214.34375,16.03125 214.34375,16.03125 C 214.34375,15.902321 214.33978,15.894728 214.375,14.78125 L 213.90625,14.78125 L 213.8125,15.46875 C 213.78902,15.656284 213.6493,15.6875 213.15625,15.6875 L 212.375,15.6875 C 211.98759,15.6875 211.82853,15.710942 211.59375,15.6875 L 211.59375,12.875 C 212.25113,12.839837 212.6356,12.8125 213.28125,12.8125 C 213.91518,12.8125 214.42576,12.93357 214.4375,13.0625 L 214.53125,13.9375 L 214.96875,13.9375 L 215.125,12.28125 L 215.0625,12.1875 C 214.62816,12.152338 214.39533,12.125 213.9375,12.125 z M 197.125,12.15625 L 197.125,12.59375 L 197.5625,12.625 C 198.09075,12.671883 198.125,12.749818 198.125,13.78125 L 198.125,18.5625 C 198.125,19.593932 198.09076,19.640617 197.5625,19.6875 L 197.125,19.71875 L 197.125,20.15625 C 198.25198,20.121087 198.24571,20.125 198.46875,20.125 C 198.70354,20.125 199.24901,20.132809 199.8125,20.15625 L 199.8125,19.71875 L 199.375,19.6875 C 198.84674,19.640618 198.8125,19.605653 198.8125,18.5625 L 198.8125,13.65625 L 201.5,19.28125 C 201.58217,19.457061 201.72619,19.734284 201.9375,20.25 L 202.34375,20.25 C 202.56681,19.710843 202.59689,19.578283 203.03125,18.6875 L 205.46875,13.6875 L 205.46875,18.5625 C 205.46875,19.605653 205.42674,19.609367 204.875,19.65625 L 204.46875,19.6875 L 204.46875,20.15625 C 205.88919,20.121087 205.88211,20.125 206.28125,20.125 C 206.68038,20.125 206.67331,20.121088 208.09375,20.15625 L 208.09375,19.6875 L 207.6875,19.65625 C 207.13576,19.609368 207.09375,19.605653 207.09375,18.5625 L 207.09375,13.78125 C 207.09374,12.749818 207.15924,12.671883 207.6875,12.625 L 208.09375,12.59375 L 208.09375,12.15625 C 206.86115,12.191412 206.87913,12.1875 206.75,12.1875 C 206.62086,12.1875 206.62712,12.191412 205.40625,12.15625 C 205.0658,12.964987 204.94163,13.199171 204.8125,13.46875 L 202.65625,17.90625 L 200.8125,14.03125 L 199.9375,12.15625 L 198.53125,12.1875 C 198.34341,12.1875 198.07093,12.167971 197.71875,12.15625 C 197.54267,12.15625 197.53588,12.167971 197.125,12.15625 z M 216.125,12.15625 L 216.125,12.59375 L 216.5625,12.625 C 217.09075,12.671883 217.125,12.749818 217.125,13.78125 L 217.125,18.5625 C 217.125,19.605653 217.11424,19.609367 216.5625,19.65625 L 216.125,19.6875 L 216.125,20.15625 C 217.54544,20.121087 217.53836,20.125 217.9375,20.125 C 218.33664,20.125 218.36081,20.121088 219.78125,20.15625 L 219.78125,19.6875 L 219.34375,19.65625 C 218.79201,19.609368 218.78125,19.605653 218.78125,18.5625 L 218.78125,12.84375 C 218.9456,12.773425 219.16353,12.75 219.46875,12.75 C 220.51353,12.75 221.09375,13.300614 221.09375,14.25 C 221.09375,14.871204 220.82506,15.37495 220.34375,15.65625 C 220.05027,15.832062 219.73527,15.886721 219.21875,15.875 L 219.15625,16.09375 L 221.78125,20.15625 L 222.84375,20.125 C 223.44245,20.136721 223.5344,20.132809 223.96875,20.15625 L 223.96875,19.6875 C 223.54615,19.605456 223.43799,19.531316 223.15625,19.15625 L 221.03125,15.96875 C 221.68865,15.699171 221.97603,15.507874 222.28125,15.15625 C 222.62168,14.792904 222.78125,14.367274 222.78125,13.875 C 222.78124,12.73808 222.0104,12.15625 220.53125,12.15625 C 220.40212,12.15625 220.11789,12.144529 219.71875,12.15625 C 219.41353,12.167971 218.47701,12.1875 218.21875,12.1875 C 217.89006,12.1875 217.88588,12.191412 216.125,12.15625 z M 224.59375,12.15625 L 224.59375,12.625 L 225.03125,12.65625 C 225.583,12.703135 225.59375,12.738097 225.59375,13.78125 L 225.59375,18.5625 C 225.59374,19.605653 225.58299,19.609367 225.03125,19.65625 L 224.59375,19.6875 L 224.59375,20.15625 C 226.0142,20.121087 226.00711,20.125 226.40625,20.125 C 226.80538,20.125 226.82956,20.121088 228.25,20.15625 L 228.25,19.6875 L 227.8125,19.65625 C 227.26076,19.609368 227.25,19.605653 227.25,18.5625 L 227.25,13.78125 C 227.25,12.738097 227.26076,12.703135 227.8125,12.65625 L 228.25,12.625 L 228.25,12.15625 C 226.81781,12.191412 226.80538,12.1875 226.40625,12.1875 C 226.00711,12.1875 226.00247,12.191412 224.59375,12.15625 z M 268.46875,12.15625 L 268.46875,12.59375 L 268.90625,12.625 C 269.4345,12.671883 269.46875,12.749818 269.46875,13.78125 L 269.46875,18.0625 C 269.46875,19.457278 270.73085,20.34375 272.75,20.34375 C 274.99218,20.34375 276.09375,19.308969 276.09375,17.1875 L 276.09375,13.78125 C 276.09374,12.749818 276.12799,12.671883 276.65625,12.625 L 277.0625,12.59375 L 277.0625,12.15625 C 277.06251,12.15625 275.75,12.1875 275.75,12.1875 C 275.62087,12.1875 275.40807,12.191412 274.375,12.15625 L 274.375,12.59375 L 274.8125,12.625 C 275.34076,12.671883 275.375,12.749818 275.375,13.78125 L 275.375,16.59375 C 275.375,17.836158 275.24289,18.464771 274.84375,18.875 C 274.51506,19.214903 273.96228,19.375 273.1875,19.375 C 272.37748,19.375 271.84821,19.168036 271.53125,18.78125 C 271.22604,18.406183 271.125,17.883024 271.125,16.6875 L 271.125,13.78125 C 271.12498,12.749818 271.15923,12.671883 271.6875,12.625 L 272.125,12.59375 L 272.125,12.15625 C 270.69281,12.191412 270.68039,12.1875 270.28125,12.1875 C 269.88211,12.1875 269.87746,12.191412 268.46875,12.15625 z M 277.6875,12.15625 L 277.6875,12.59375 L 278.125,12.625 C 278.65325,12.671883 278.6875,12.749818 278.6875,13.78125 L 278.6875,18.5625 C 278.68749,19.593932 278.65326,19.640617 278.125,19.6875 L 277.6875,19.71875 L 277.6875,20.15625 C 278.81445,20.121087 278.80821,20.125 279.03125,20.125 C 279.26604,20.125 279.81152,20.132809 280.375,20.15625 L 280.375,19.71875 L 279.9375,19.6875 C 279.40923,19.640618 279.375,19.605653 279.375,18.5625 L 279.375,13.9375 L 283.21875,18.53125 L 284.65625,20.15625 L 285.59375,20.3125 L 285.6875,20.28125 C 285.66402,19.624883 285.65625,19.363328 285.65625,19.09375 L 285.65625,13.78125 C 285.65624,12.749818 285.69049,12.671883 286.21875,12.625 L 286.65625,12.59375 L 286.65625,12.15625 C 286.65625,12.15625 285.3125,12.1875 285.3125,12.1875 C 285.18338,12.1875 285.0018,12.191412 283.96875,12.15625 L 283.96875,12.59375 L 284.40625,12.625 C 284.93452,12.671883 284.96875,12.749818 284.96875,13.78125 L 284.96875,17.96875 L 281.28125,13.71875 C 281.03472,13.437451 280.84506,13.15252 280.09375,12.15625 L 279.09375,12.1875 L 278.84375,12.1875 C 278.73809,12.1875 278.35663,12.179692 277.6875,12.15625 z M 287.46875,12.15625 L 287.46875,12.59375 L 287.90625,12.625 C 288.43452,12.671883 288.46875,12.749818 288.46875,13.78125 L 288.46875,19.03125 C 288.46874,19.418038 288.42609,19.593733 288.25,19.6875 L 287.875,19.90625 L 287.875,20.15625 C 289.47153,20.121087 289.46445,20.125 289.6875,20.125 C 289.8988,20.125 290.51902,20.144529 290.8125,20.15625 L 291.53125,20.15625 C 292.92824,20.156249 294.18206,19.67984 295.0625,18.8125 C 295.87251,18.027204 296.3125,16.972878 296.3125,15.71875 C 296.3125,14.605272 295.99322,13.699321 295.40625,13.125 C 294.72538,12.445193 293.77229,12.167971 292.1875,12.15625 C 290.35617,12.179692 289.41021,12.1875 289.375,12.1875 C 289.2224,12.1875 289.21791,12.191412 287.46875,12.15625 z M 306.25,12.15625 L 306.1875,12.21875 C 306.2814,12.781349 306.30853,13.171718 306.34375,14.0625 L 306.8125,14.0625 L 306.875,13.25 C 306.87501,13.179675 306.93354,13.058605 306.96875,13 C 307.02744,12.917954 307.19446,12.875 307.6875,12.875 L 309.0625,12.875 L 309.0625,18.5625 C 309.06249,19.605653 309.05174,19.609367 308.5,19.65625 L 308.0625,19.6875 L 308.0625,20.15625 C 309.48294,20.121087 309.50711,20.125 309.90625,20.125 C 310.30538,20.125 310.2983,20.121088 311.71875,20.15625 L 311.71875,19.6875 L 311.28125,19.65625 C 310.7295,19.609368 310.71875,19.605653 310.71875,18.5625 L 310.71875,12.875 L 312.09375,12.875 C 312.58679,12.875 312.7381,12.886704 312.84375,12.96875 L 312.9375,13.25 L 313,14.0625 L 313.46875,14.0625 C 313.49222,13.171718 313.53109,12.781349 313.625,12.21875 L 313.5625,12.15625 C 310.32247,12.191412 310.30538,12.1875 309.90625,12.1875 C 309.49536,12.1875 309.49003,12.191412 306.25,12.15625 z M 314.28125,12.15625 L 314.28125,12.625 L 314.71875,12.65625 C 315.27048,12.703135 315.28125,12.738097 315.28125,13.78125 L 315.28125,18.5625 C 315.28125,19.605653 315.27049,19.609367 314.71875,19.65625 L 314.28125,19.6875 L 314.28125,20.15625 C 315.70169,20.121087 315.69461,20.125 316.09375,20.125 C 316.49288,20.125 316.51706,20.121088 317.9375,20.15625 L 317.9375,19.6875 L 317.5,19.65625 C 316.94826,19.609368 316.9375,19.605653 316.9375,18.5625 L 316.9375,13.78125 C 316.93749,12.738097 316.94826,12.703135 317.5,12.65625 L 317.9375,12.625 L 317.9375,12.15625 C 316.50531,12.191412 316.49288,12.1875 316.09375,12.1875 C 315.69461,12.1875 315.68995,12.191412 314.28125,12.15625 z M 328.59375,12.15625 L 328.59375,12.59375 L 329.03125,12.625 C 329.55952,12.671883 329.59375,12.749818 329.59375,13.78125 L 329.59375,18.5625 C 329.59375,19.593932 329.55952,19.640617 329.03125,19.6875 L 328.59375,19.71875 L 328.59375,20.15625 C 329.72073,20.121087 329.71446,20.125 329.9375,20.125 C 330.17229,20.125 330.71777,20.132809 331.28125,20.15625 L 331.28125,19.71875 L 330.84375,19.6875 C 330.31548,19.640618 330.28125,19.605653 330.28125,18.5625 L 330.28125,13.9375 L 334.125,18.53125 L 335.53125,20.15625 L 336.5,20.3125 L 336.59375,20.28125 C 336.57028,19.624883 336.5625,19.363328 336.5625,19.09375 L 336.5625,13.78125 C 336.56251,12.749818 336.59673,12.671883 337.125,12.625 L 337.5625,12.59375 L 337.5625,12.15625 C 337.56249,12.15625 336.21875,12.1875 336.21875,12.1875 C 336.08962,12.1875 335.90806,12.191412 334.875,12.15625 L 334.875,12.59375 L 335.28125,12.625 C 335.80953,12.671883 335.84375,12.749818 335.84375,13.78125 L 335.84375,17.96875 L 332.1875,13.71875 C 331.94098,13.437451 331.75131,13.15252 331,12.15625 L 330,12.1875 L 329.75,12.1875 C 329.64434,12.1875 329.26289,12.179692 328.59375,12.15625 z M 190.25,12.4375 L 191.78125,16.21875 L 188.75,16.21875 L 190.25,12.4375 z M 263.3125,12.65625 C 263.93467,12.65625 264.43287,12.851492 264.84375,13.25 C 265.48942,13.882925 265.84375,14.988046 265.84375,16.3125 C 265.84375,18.516014 264.93267,19.6875 263.21875,19.6875 C 262.5731,19.687499 262.11011,19.48445 261.6875,19.0625 C 261.05358,18.441296 260.6875,17.316644 260.6875,15.96875 C 260.68751,14.773226 260.97174,13.839937 261.5,13.3125 C 261.95784,12.86711 262.57293,12.65625 263.3125,12.65625 z M 323.34375,12.65625 C 323.96593,12.65625 324.46413,12.851492 324.875,13.25 C 325.52067,13.882925 325.875,14.988046 325.875,16.3125 C 325.87501,18.516014 324.96393,19.6875 323.25,19.6875 C 322.60436,19.687499 322.11012,19.48445 321.6875,19.0625 C 321.05357,18.441296 320.71875,17.316644 320.71875,15.96875 C 320.71874,14.773226 321.00298,13.839937 321.53125,13.3125 C 321.98908,12.86711 322.60418,12.65625 323.34375,12.65625 z M 290.875,12.75 C 292.24847,12.75 293.17478,13.03115 293.75,13.59375 C 294.27826,14.109466 294.53125,14.902138 294.53125,16.0625 C 294.53125,17.246302 294.25098,18.1249 293.6875,18.6875 C 293.10054,19.26182 292.26403,19.53125 290.9375,19.53125 C 290.64401,19.531251 290.41848,19.515634 290.125,19.46875 L 290.125,12.78125 C 290.40675,12.746088 290.60499,12.75 290.875,12.75 z M 241.1875,14.09375 L 242.4375,17.0625 L 240.03125,17.0625 L 241.1875,14.09375 z M 300.875,14.09375 L 302.09375,17.0625 L 299.6875,17.0625 L 300.875,14.09375 z"
         transform="matrix(3.0000003,0,0,3.0000003,14.999932,-9.999991)"
         id="path2914"
         sodipodi:nodetypes="cccccccccccccccccccccccccccccccccccssscccsccccscccsccccccccccccccscccccccccccccccccccccccccccccccccsccccccccccccccccccscccccsssccsscccssscccccccsssccsssccccccscccccccccccccscccccccsscccsccccccccccccssscccsccccscccscccccccccccccssscccsccccscccscccccccssccccccccccscccccsscccccccccccccccscccccccssccccccccccscccccsscccccccccccccccsccccccccccccccsccccccccccccccsccccccccsccccccscccccccccscccccsssccccccccssssscccccccccsccccccccsccccccscccccccccccssscccccscccccccccscccccccccccccccccccccccccccccccccscccsscsccccccsccccccsccccccccccccscccccccccsccccccccscccccccccsccccccccccccccccccccccccccccccssssssccssssssccssssccccccccccc"
         inkscape:connector-curvature="0" />
    </g>
    <g
       style="display:inline;enable-background:new"
       id="g6623"
       transform="translate(-940,15)">
      <g
         id="g6609">
        <g
           id="g3611"
           transform="translate(10,20)">
          <path
             style="font-size:40px;font-style:normal;font-variant:normal;font-weight:normal;font-stretch:normal;text-indent:0;text-align:start;text-decoration:none;line-height:100%;letter-spacing:normal;word-spacing:normal;text-transform:none;direction:ltr;block-progression:tb;writing-mode:lr-tb;text-anchor:start;fill:#686858;fill-opacity:1;fill-rule:nonzero;stroke:none;stroke-width:0.97799516;marker:none;visibility:visible;display:inline;overflow:visible;enable-background:accumulate;font-family:Alternate Gothic LT No3;-inkscape-font-specification:Alternate Gothic LT No3"
             d="M 937.96,146.4 C 939.61332,146.40001 940.74666,146.10668 941.36,145.52 C 941.99999,144.90668 942.31999,143.81335 942.32,142.24 C 942.31999,140.69335 941.99999,139.62669 941.36,139.04 C 940.74666,138.42669 939.61332,138.12002 937.96,138.12 L 936.16,138.12 L 936.16,146.4 L 937.96,146.4 M 936.16,161 L 932.04,161 L 932.04,134.32 L 938.88,134.32 C 940.23999,134.32003 941.35999,134.45336 942.24,134.72 C 943.11999,134.98669 943.86665,135.42669 944.48,136.04 C 945.89332,137.37336 946.59998,139.44002 946.6,142.24 C 946.59998,145.06668 945.89332,147.14668 944.48,148.48 C 943.86665,149.09335 943.11999,149.53334 942.24,149.8 C 941.35999,150.06668 940.23999,150.20001 938.88,150.2 L 936.16,150.2 L 936.16,161 M 955.64062,139.44 L 953.48063,151.4 L 957.84063,151.4 L 955.64062,139.44 M 952.84063,155.2 L 951.76063,161 L 947.72063,161 L 952.84063,134.32 L 958.48063,134.32 L 963.88063,161 L 959.64062,161 L 958.52062,155.2 L 952.84063,155.2 M 970.8475,145.36 L 976.8075,134.32 L 981.2475,134.32 L 975.6075,144 L 982.0475,161 L 977.5275,161 L 973.0475,148.4 L 970.8475,152.12 L 970.8475,161 L 966.7275,161 L 966.7275,134.32 L 970.8475,134.32 L 970.8475,145.36 M 988.58187,161 L 984.46187,161 L 984.46187,134.32 L 988.58187,134.32 L 988.58187,161 M 1002.705,141.76 C 1002.065,139.12002 1000.8917,137.80002 999.185,137.8 C 998.41166,137.80002 997.77166,138.06669 997.265,138.6 C 996.75833,139.10669 996.50499,139.74669 996.505,140.52 C 996.50499,141.50669 996.87833,142.40002 997.625,143.2 C 997.78499,143.38668 997.91833,143.54668 998.025,143.68 C 998.15833,143.81335 998.33166,143.97335 998.545,144.16 C 998.78499,144.32002 999.09166,144.56002 999.465,144.88 C 999.86499,145.17335 1000.425,145.58668 1001.145,146.12 C 1001.705,146.57335 1002.185,146.96001 1002.585,147.28 C 1002.985,147.60001 1003.3317,147.90668 1003.625,148.2 C 1003.9183,148.46668 1004.185,148.72001 1004.425,148.96 C 1004.665,149.20001 1004.8917,149.45334 1005.105,149.72 C 1005.6383,150.38668 1006.0517,151.14668 1006.345,152 C 1006.665,152.82667 1006.825,153.69334 1006.825,154.6 C 1006.825,155.61334 1006.6383,156.53334 1006.265,157.36 C 1005.9183,158.18667 1005.425,158.90667 1004.785,159.52 C 1004.145,160.10667 1003.3717,160.57333 1002.465,160.92 C 1001.585,161.24 1000.5983,161.4 999.505,161.4 C 994.945,161.4 992.25167,158.89334 991.425,153.88 L 995.385,152.72 C 995.89166,155.92001 997.26499,157.52 999.505,157.52 C 1000.4117,157.52 1001.145,157.24 1001.705,156.68 C 1002.265,156.12 1002.545,155.38667 1002.545,154.48 C 1002.545,154.05334 1002.4783,153.66667 1002.345,153.32 C 1002.2383,152.94667 1002.025,152.56001 1001.705,152.16 C 1001.4117,151.76001 1001.0117,151.33334 1000.505,150.88 C 999.99832,150.42668 999.35832,149.89334 998.585,149.28 C 997.65166,148.56001 996.91833,147.98668 996.385,147.56 C 995.85166,147.13335 995.425,146.78668 995.105,146.52 C 994.81166,146.22668 994.55833,145.97335 994.345,145.76 C 994.15833,145.52002 993.945,145.24002 993.705,144.92 C 992.71833,143.64002 992.225,142.16002 992.225,140.48 C 992.225,139.52002 992.39833,138.64002 992.745,137.84 C 993.09166,137.04002 993.57166,136.34669 994.185,135.76 C 994.79833,135.17336 995.53166,134.72003 996.385,134.4 C 997.23833,134.08003 998.17166,133.92003 999.185,133.92 C 1003.025,133.92003 1005.5183,136.14669 1006.665,140.6 L 1002.705,141.76 M 1017.9194,161 L 1013.7994,161 L 1013.7994,138.12 L 1008.6394,138.12 L 1008.6394,134.32 L 1023.1194,134.32 L 1023.1194,138.12 L 1017.9194,138.12 L 1017.9194,161 M 1031.2656,139.44 L 1029.1056,151.4 L 1033.4656,151.4 L 1031.2656,139.44 M 1028.4656,155.2 L 1027.3856,161 L 1023.3456,161 L 1028.4656,134.32 L 1034.1056,134.32 L 1039.5056,161 L 1035.2656,161 L 1034.1456,155.2 L 1028.4656,155.2 M 1057.1525,161 L 1053.4725,161 L 1046.2725,143.24 L 1046.2725,161 L 1042.3525,161 L 1042.3525,134.32 L 1046.5125,134.32 L 1053.2325,150.92 L 1053.2325,134.32 L 1057.1525,134.32 L 1057.1525,161 M 942.08,181.76 C 941.43999,179.12002 940.26666,177.80002 938.56,177.8 C 937.78666,177.80002 937.14666,178.06669 936.64,178.6 C 936.13333,179.10669 935.87999,179.74669 935.88,180.52 C 935.87999,181.50669 936.25333,182.40002 937,183.2 C 937.15999,183.38668 937.29333,183.54668 937.4,183.68 C 937.53333,183.81335 937.70666,183.97335 937.92,184.16 C 938.15999,184.32002 938.46666,184.56002 938.84,184.88 C 939.23999,185.17335 939.79999,185.58668 940.52,186.12 C 941.07999,186.57335 941.55999,186.96001 941.96,187.28 C 942.35999,187.60001 942.70665,187.90668 943,188.2 C 943.29332,188.46668 943.55999,188.72001 943.8,188.96 C 944.03999,189.20001 944.26665,189.45334 944.48,189.72 C 945.01332,190.38668 945.42665,191.14668 945.72,192 C 946.03998,192.82667 946.19998,193.69334 946.2,194.6 C 946.19998,195.61334 946.01332,196.53334 945.64,197.36 C 945.29332,198.18667 944.79999,198.90667 944.16,199.52 C 943.51999,200.10667 942.74665,200.57333 941.84,200.92 C 940.95999,201.24 939.97332,201.4 938.88,201.4 C 934.32,201.4 931.62667,198.89334 930.8,193.88 L 934.76,192.72 C 935.26666,195.92001 936.63999,197.52 938.88,197.52 C 939.78666,197.52 940.51999,197.24 941.08,196.68 C 941.63999,196.12 941.91999,195.38667 941.92,194.48 C 941.91999,194.05334 941.85332,193.66667 941.72,193.32 C 941.61332,192.94667 941.39999,192.56001 941.08,192.16 C 940.78666,191.76001 940.38666,191.33334 939.88,190.88 C 939.37332,190.42668 938.73332,189.89334 937.96,189.28 C 937.02666,188.56001 936.29333,187.98668 935.76,187.56 C 935.22666,187.13335 934.8,186.78668 934.48,186.52 C 934.18666,186.22668 933.93333,185.97335 933.72,185.76 C 933.53333,185.52002 933.32,185.24002 933.08,184.92 C 932.09333,183.64002 931.6,182.16002 931.6,180.48 C 931.6,179.52002 931.77333,178.64002 932.12,177.84 C 932.46666,177.04002 932.94666,176.34669 933.56,175.76 C 934.17333,175.17336 934.90666,174.72003 935.76,174.4 C 936.61333,174.08003 937.54666,173.92003 938.56,173.92 C 942.39999,173.92003 944.89332,176.14669 946.04,180.6 L 942.08,181.76 M 963.19125,174.32 L 963.19125,192.4 C 963.19123,194.08001 963.07123,195.41334 962.83125,196.4 C 962.6179,197.38667 962.23123,198.25334 961.67125,199 C 961.08457,199.77333 960.31124,200.37333 959.35125,200.8 C 958.41791,201.2 957.35124,201.4 956.15125,201.4 C 953.64458,201.4 951.79125,200.6 950.59125,199 C 950.03125,198.25334 949.63125,197.38667 949.39125,196.4 C 949.17791,195.41334 949.07125,194.08001 949.07125,192.4 L 949.07125,174.32 L 953.19125,174.32 L 953.19125,193.08 C 953.19124,194.68001 953.41791,195.82667 953.87125,196.52 C 954.32458,197.18667 955.08458,197.52 956.15125,197.52 C 957.19124,197.52 957.93791,197.18667 958.39125,196.52 C 958.84457,195.82667 959.07124,194.68001 959.07125,193.08 L 959.07125,174.32 L 963.19125,174.32 M 972.83625,186.24 C 973.71624,186.24001 974.38291,186.18668 974.83625,186.08 C 975.31624,185.94668 975.71624,185.72002 976.03625,185.4 C 976.70291,184.73335 977.03624,183.65335 977.03625,182.16 C 977.03624,180.69335 976.70291,179.62669 976.03625,178.96 C 975.71624,178.64002 975.31624,178.42669 974.83625,178.32 C 974.38291,178.18669 973.71624,178.12002 972.83625,178.12 L 971.31625,178.12 L 971.31625,186.24 L 972.83625,186.24 M 971.31625,201 L 967.19625,201 L 967.19625,174.32 L 973.63625,174.32 C 974.86291,174.32003 975.88957,174.45336 976.71625,174.72 C 977.5429,174.96003 978.27624,175.36003 978.91625,175.92 C 980.51623,177.28002 981.31623,179.29336 981.31625,181.96 C 981.31623,185.34668 980.11624,187.65335 977.71625,188.88 L 981.63625,201 L 977.31625,201 L 973.79625,190.04 L 971.31625,190.04 L 971.31625,201 M 989.2125,201 L 983.4925,174.32 L 987.7725,174.32 L 991.7725,194.6 L 995.2925,174.32 L 999.4925,174.32 L 994.3325,201 L 989.2125,201 M 1014.2763,178.12 L 1006.3162,178.12 L 1006.3162,185.16 L 1012.1962,185.16 L 1012.1962,188.96 L 1006.3162,188.96 L 1006.3162,197.2 L 1014.2763,197.2 L 1014.2763,201 L 1002.1962,201 L 1002.1962,174.32 L 1014.2763,174.32 L 1014.2763,178.12 M 1025.8781,201 L 1021.7581,201 L 1021.7581,190.6 L 1015.7581,174.32 L 1020.3181,174.32 L 1023.8781,185.6 L 1027.5581,174.32 L 1032.0381,174.32 L 1025.8781,190.6 L 1025.8781,201"
             id="path3554"
             sodipodi:nodetypes="csscccccccccscscscccccccccccccccccccccccccccccccccccscscscccsssscscccsccsssccscsccssssssccccccccccccccccccccccccccccccccccccscscscccsssscscccsccsssccscsccsssssscccccscssccccccscccccsssscccccccccccsccccccccccccccccccccccccccccccccccccc"
             inkscape:connector-curvature="0" />
          <path
             sodipodi:nodetypes="csscccccccccscscscccccccccccccccccccccccccccccccccccscscscccsssscscccsccsssccscsccssssssccccccccccccccccccccccccccccccccccccscscscccsssscscccsccsssccscsccsssssscccccscssccccccscccccsssscccccccccccsccccccccccccccccccccccccccccccccccccc"
             id="text3473"
             d="M 937.96,145.4 C 939.61332,145.40001 940.74666,145.10668 941.36,144.52 C 941.99999,143.90668 942.31999,142.81335 942.32,141.24 C 942.31999,139.69335 941.99999,138.62669 941.36,138.04 C 940.74666,137.42669 939.61332,137.12002 937.96,137.12 L 936.16,137.12 L 936.16,145.4 L 937.96,145.4 M 936.16,160 L 932.04,160 L 932.04,133.32 L 938.88,133.32 C 940.23999,133.32003 941.35999,133.45336 942.24,133.72 C 943.11999,133.98669 943.86665,134.42669 944.48,135.04 C 945.89332,136.37336 946.59998,138.44002 946.6,141.24 C 946.59998,144.06668 945.89332,146.14668 944.48,147.48 C 943.86665,148.09335 943.11999,148.53334 942.24,148.8 C 941.35999,149.06668 940.23999,149.20001 938.88,149.2 L 936.16,149.2 L 936.16,160 M 955.64062,138.44 L 953.48063,150.4 L 957.84063,150.4 L 955.64062,138.44 M 952.84063,154.2 L 951.76063,160 L 947.72063,160 L 952.84063,133.32 L 958.48063,133.32 L 963.88063,160 L 959.64062,160 L 958.52062,154.2 L 952.84063,154.2 M 970.8475,144.36 L 976.8075,133.32 L 981.2475,133.32 L 975.6075,143 L 982.0475,160 L 977.5275,160 L 973.0475,147.4 L 970.8475,151.12 L 970.8475,160 L 966.7275,160 L 966.7275,133.32 L 970.8475,133.32 L 970.8475,144.36 M 988.58187,160 L 984.46187,160 L 984.46187,133.32 L 988.58187,133.32 L 988.58187,160 M 1002.705,140.76 C 1002.065,138.12002 1000.8917,136.80002 999.185,136.8 C 998.41166,136.80002 997.77166,137.06669 997.265,137.6 C 996.75833,138.10669 996.50499,138.74669 996.505,139.52 C 996.50499,140.50669 996.87833,141.40002 997.625,142.2 C 997.78499,142.38668 997.91833,142.54668 998.025,142.68 C 998.15833,142.81335 998.33166,142.97335 998.545,143.16 C 998.78499,143.32002 999.09166,143.56002 999.465,143.88 C 999.86499,144.17335 1000.425,144.58668 1001.145,145.12 C 1001.705,145.57335 1002.185,145.96001 1002.585,146.28 C 1002.985,146.60001 1003.3317,146.90668 1003.625,147.2 C 1003.9183,147.46668 1004.185,147.72001 1004.425,147.96 C 1004.665,148.20001 1004.8917,148.45334 1005.105,148.72 C 1005.6383,149.38668 1006.0517,150.14668 1006.345,151 C 1006.665,151.82667 1006.825,152.69334 1006.825,153.6 C 1006.825,154.61334 1006.6383,155.53334 1006.265,156.36 C 1005.9183,157.18667 1005.425,157.90667 1004.785,158.52 C 1004.145,159.10667 1003.3717,159.57333 1002.465,159.92 C 1001.585,160.24 1000.5983,160.4 999.505,160.4 C 994.945,160.4 992.25167,157.89334 991.425,152.88 L 995.385,151.72 C 995.89166,154.92001 997.26499,156.52 999.505,156.52 C 1000.4117,156.52 1001.145,156.24 1001.705,155.68 C 1002.265,155.12 1002.545,154.38667 1002.545,153.48 C 1002.545,153.05334 1002.4783,152.66667 1002.345,152.32 C 1002.2383,151.94667 1002.025,151.56001 1001.705,151.16 C 1001.4117,150.76001 1001.0117,150.33334 1000.505,149.88 C 999.99832,149.42668 999.35832,148.89334 998.585,148.28 C 997.65166,147.56001 996.91833,146.98668 996.385,146.56 C 995.85166,146.13335 995.425,145.78668 995.105,145.52 C 994.81166,145.22668 994.55833,144.97335 994.345,144.76 C 994.15833,144.52002 993.945,144.24002 993.705,143.92 C 992.71833,142.64002 992.225,141.16002 992.225,139.48 C 992.225,138.52002 992.39833,137.64002 992.745,136.84 C 993.09166,136.04002 993.57166,135.34669 994.185,134.76 C 994.79833,134.17336 995.53166,133.72003 996.385,133.4 C 997.23833,133.08003 998.17166,132.92003 999.185,132.92 C 1003.025,132.92003 1005.5183,135.14669 1006.665,139.6 L 1002.705,140.76 M 1017.9194,160 L 1013.7994,160 L 1013.7994,137.12 L 1008.6394,137.12 L 1008.6394,133.32 L 1023.1194,133.32 L 1023.1194,137.12 L 1017.9194,137.12 L 1017.9194,160 M 1031.2656,138.44 L 1029.1056,150.4 L 1033.4656,150.4 L 1031.2656,138.44 M 1028.4656,154.2 L 1027.3856,160 L 1023.3456,160 L 1028.4656,133.32 L 1034.1056,133.32 L 1039.5056,160 L 1035.2656,160 L 1034.1456,154.2 L 1028.4656,154.2 M 1057.1525,160 L 1053.4725,160 L 1046.2725,142.24 L 1046.2725,160 L 1042.3525,160 L 1042.3525,133.32 L 1046.5125,133.32 L 1053.2325,149.92 L 1053.2325,133.32 L 1057.1525,133.32 L 1057.1525,160 M 942.08,180.76 C 941.43999,178.12002 940.26666,176.80002 938.56,176.8 C 937.78666,176.80002 937.14666,177.06669 936.64,177.6 C 936.13333,178.10669 935.87999,178.74669 935.88,179.52 C 935.87999,180.50669 936.25333,181.40002 937,182.2 C 937.15999,182.38668 937.29333,182.54668 937.4,182.68 C 937.53333,182.81335 937.70666,182.97335 937.92,183.16 C 938.15999,183.32002 938.46666,183.56002 938.84,183.88 C 939.23999,184.17335 939.79999,184.58668 940.52,185.12 C 941.07999,185.57335 941.55999,185.96001 941.96,186.28 C 942.35999,186.60001 942.70665,186.90668 943,187.2 C 943.29332,187.46668 943.55999,187.72001 943.8,187.96 C 944.03999,188.20001 944.26665,188.45334 944.48,188.72 C 945.01332,189.38668 945.42665,190.14668 945.72,191 C 946.03998,191.82667 946.19998,192.69334 946.2,193.6 C 946.19998,194.61334 946.01332,195.53334 945.64,196.36 C 945.29332,197.18667 944.79999,197.90667 944.16,198.52 C 943.51999,199.10667 942.74665,199.57333 941.84,199.92 C 940.95999,200.24 939.97332,200.4 938.88,200.4 C 934.32,200.4 931.62667,197.89334 930.8,192.88 L 934.76,191.72 C 935.26666,194.92001 936.63999,196.52 938.88,196.52 C 939.78666,196.52 940.51999,196.24 941.08,195.68 C 941.63999,195.12 941.91999,194.38667 941.92,193.48 C 941.91999,193.05334 941.85332,192.66667 941.72,192.32 C 941.61332,191.94667 941.39999,191.56001 941.08,191.16 C 940.78666,190.76001 940.38666,190.33334 939.88,189.88 C 939.37332,189.42668 938.73332,188.89334 937.96,188.28 C 937.02666,187.56001 936.29333,186.98668 935.76,186.56 C 935.22666,186.13335 934.8,185.78668 934.48,185.52 C 934.18666,185.22668 933.93333,184.97335 933.72,184.76 C 933.53333,184.52002 933.32,184.24002 933.08,183.92 C 932.09333,182.64002 931.6,181.16002 931.6,179.48 C 931.6,178.52002 931.77333,177.64002 932.12,176.84 C 932.46666,176.04002 932.94666,175.34669 933.56,174.76 C 934.17333,174.17336 934.90666,173.72003 935.76,173.4 C 936.61333,173.08003 937.54666,172.92003 938.56,172.92 C 942.39999,172.92003 944.89332,175.14669 946.04,179.6 L 942.08,180.76 M 963.19125,173.32 L 963.19125,191.4 C 963.19123,193.08001 963.07123,194.41334 962.83125,195.4 C 962.6179,196.38667 962.23123,197.25334 961.67125,198 C 961.08457,198.77333 960.31124,199.37333 959.35125,199.8 C 958.41791,200.2 957.35124,200.4 956.15125,200.4 C 953.64458,200.4 951.79125,199.6 950.59125,198 C 950.03125,197.25334 949.63125,196.38667 949.39125,195.4 C 949.17791,194.41334 949.07125,193.08001 949.07125,191.4 L 949.07125,173.32 L 953.19125,173.32 L 953.19125,192.08 C 953.19124,193.68001 953.41791,194.82667 953.87125,195.52 C 954.32458,196.18667 955.08458,196.52 956.15125,196.52 C 957.19124,196.52 957.93791,196.18667 958.39125,195.52 C 958.84457,194.82667 959.07124,193.68001 959.07125,192.08 L 959.07125,173.32 L 963.19125,173.32 M 972.83625,185.24 C 973.71624,185.24001 974.38291,185.18668 974.83625,185.08 C 975.31624,184.94668 975.71624,184.72002 976.03625,184.4 C 976.70291,183.73335 977.03624,182.65335 977.03625,181.16 C 977.03624,179.69335 976.70291,178.62669 976.03625,177.96 C 975.71624,177.64002 975.31624,177.42669 974.83625,177.32 C 974.38291,177.18669 973.71624,177.12002 972.83625,177.12 L 971.31625,177.12 L 971.31625,185.24 L 972.83625,185.24 M 971.31625,200 L 967.19625,200 L 967.19625,173.32 L 973.63625,173.32 C 974.86291,173.32003 975.88957,173.45336 976.71625,173.72 C 977.5429,173.96003 978.27624,174.36003 978.91625,174.92 C 980.51623,176.28002 981.31623,178.29336 981.31625,180.96 C 981.31623,184.34668 980.11624,186.65335 977.71625,187.88 L 981.63625,200 L 977.31625,200 L 973.79625,189.04 L 971.31625,189.04 L 971.31625,200 M 989.2125,200 L 983.4925,173.32 L 987.7725,173.32 L 991.7725,193.6 L 995.2925,173.32 L 999.4925,173.32 L 994.3325,200 L 989.2125,200 M 1014.2763,177.12 L 1006.3162,177.12 L 1006.3162,184.16 L 1012.1962,184.16 L 1012.1962,187.96 L 1006.3162,187.96 L 1006.3162,196.2 L 1014.2763,196.2 L 1014.2763,200 L 1002.1962,200 L 1002.1962,173.32 L 1014.2763,173.32 L 1014.2763,177.12 M 1025.8781,200 L 1021.7581,200 L 1021.7581,189.6 L 1015.7581,173.32 L 1020.3181,173.32 L 1023.8781,184.6 L 1027.5581,173.32 L 1032.0381,173.32 L 1025.8781,189.6 L 1025.8781,200"
             style="font-size:40px;font-style:normal;font-variant:normal;font-weight:normal;font-stretch:normal;text-indent:0;text-align:start;text-decoration:none;line-height:100%;letter-spacing:normal;word-spacing:normal;text-transform:none;direction:ltr;block-progression:tb;writing-mode:lr-tb;text-anchor:start;fill:#202018;fill-opacity:1;fill-rule:nonzero;stroke:none;stroke-width:0.97799516;marker:none;visibility:visible;display:inline;overflow:visible;enable-background:accumulate;font-family:Alternate Gothic LT No3;-inkscape-font-specification:Alternate Gothic LT No3"
             inkscape:connector-curvature="0" />
          <text
             sodipodi:linespacing="100%"
             id="text3512"
             y="122"
             x="930"
             style="font-size:40px;font-style:normal;font-variant:normal;font-weight:normal;font-stretch:normal;text-indent:0;text-align:start;text-decoration:none;line-height:100%;letter-spacing:normal;word-spacing:normal;text-transform:none;direction:ltr;block-progression:tb;writing-mode:lr-tb;text-anchor:start;fill:#444438;fill-opacity:1;fill-rule:nonzero;stroke:none;stroke-width:0.97799516;marker:none;visibility:visible;display:inline;overflow:visible;enable-background:accumulate;font-family:Alternate Gothic LT No3;-inkscape-font-specification:Alternate Gothic LT No3"
             xml:space="preserve"><tspan
               id="tspan3514"
               y="122"
               x="930"
               sodipodi:role="line">FATA</tspan></text>
          <text
             xml:space="preserve"
             style="font-size:40px;font-style:normal;font-variant:normal;font-weight:normal;font-stretch:normal;text-indent:0;text-align:start;text-decoration:none;line-height:100%;letter-spacing:normal;word-spacing:normal;text-transform:none;direction:ltr;block-progression:tb;writing-mode:lr-tb;text-anchor:start;fill:url(#linearGradient3621);fill-opacity:1;fill-rule:nonzero;stroke:none;stroke-width:0.97799516;marker:none;visibility:visible;display:inline;overflow:visible;enable-background:accumulate;font-family:Alternate Gothic LT No3;-inkscape-font-specification:Alternate Gothic LT No3"
             x="930"
             y="120"
             id="text3497"
             sodipodi:linespacing="100%"><tspan
               style="fill:url(#linearGradient3621);fill-opacity:1"
               sodipodi:role="line"
               x="930"
               y="120"
               id="tspan3503">FATA</tspan></text>
          <path
             id="text3524"
             d="M 932.03125,93.3125 L 932.03125,94.3125 L 944.25,94.3125 L 944.25,93.3125 L 932.03125,93.3125 z M 949.71875,93.3125 L 944.59375,120 L 944.78125,120 L 949.71875,94.3125 L 955.34375,94.3125 L 960.5625,120 L 960.75,120 L 955.34375,93.3125 L 949.71875,93.3125 z M 960.75,93.3125 L 960.75,94.3125 L 975.21875,94.3125 L 975.21875,93.3125 L 960.75,93.3125 z M 980.5625,93.3125 L 975.46875,120 L 975.65625,120 L 980.5625,94.3125 L 986.21875,94.3125 L 991.4375,120 L 991.625,120 L 986.21875,93.3125 L 980.5625,93.3125 z M 936.15625,104.3125 L 936.15625,105.3125 L 942.15625,105.3125 L 942.15625,104.3125 L 936.15625,104.3125 z M 950.53125,110.40625 L 950.34375,111.40625 L 954.71875,111.40625 L 954.53125,110.40625 L 950.53125,110.40625 z M 981.40625,110.40625 L 981.21875,111.40625 L 985.5625,111.40625 L 985.375,110.40625 L 981.40625,110.40625 z"
             style="font-size:40px;font-style:normal;font-variant:normal;font-weight:normal;font-stretch:normal;text-indent:0;text-align:start;text-decoration:none;line-height:100%;letter-spacing:normal;word-spacing:normal;text-transform:none;direction:ltr;block-progression:tb;writing-mode:lr-tb;text-anchor:start;fill:url(#linearGradient3623);fill-opacity:1;fill-rule:nonzero;stroke:none;stroke-width:0.97799516;marker:none;visibility:visible;display:inline;overflow:visible;enable-background:accumulate;font-family:Alternate Gothic LT No3;-inkscape-font-specification:Alternate Gothic LT No3"
             inkscape:connector-curvature="0" />
          <path
             id="path3549"
             d="M 999.1875,132.90625 C 998.17416,132.90628 997.22832,133.08629 996.375,133.40625 C 995.52166,133.72628 994.80083,134.16337 994.1875,134.75 C 993.57416,135.33669 993.09666,136.04377 992.75,136.84375 C 992.40333,137.64377 992.21877,138.50877 992.21875,139.46875 C 992.21875,139.81299 992.23983,140.14131 992.28125,140.46875 C 992.36142,139.89431 992.5292,139.3533 992.75,138.84375 C 993.09666,138.04377 993.57416,137.33669 994.1875,136.75 C 994.80083,136.16337 995.52166,135.72628 996.375,135.40625 C 997.22832,135.08629 998.17416,134.90628 999.1875,134.90625 C 1002.4613,134.90628 1004.7463,136.54444 1006.0625,139.78125 L 1006.6562,139.59375 C 1005.5096,135.14044 1003.0275,132.90628 999.1875,132.90625 z M 932.03125,133.3125 L 932.03125,135.3125 L 938.875,135.3125 C 940.23499,135.31252 941.36999,135.45211 942.25,135.71875 C 943.13,135.98544 943.8554,136.41794 944.46875,137.03125 C 945.70542,138.19795 946.40791,139.92918 946.5625,142.21875 C 946.58323,141.89835 946.59375,141.5923 946.59375,141.25 C 946.59373,138.45002 945.88209,136.36462 944.46875,135.03125 C 943.8554,134.41794 943.13,133.98544 942.25,133.71875 C 941.36999,133.45211 940.23499,133.31252 938.875,133.3125 L 932.03125,133.3125 z M 952.84375,133.3125 L 947.71875,160 L 948.09375,160 L 952.84375,135.3125 L 958.46875,135.3125 L 963.46875,160 L 963.875,160 L 958.46875,133.3125 L 952.84375,133.3125 z M 966.71875,133.3125 L 966.71875,135.3125 L 970.84375,135.3125 L 970.84375,133.3125 L 966.71875,133.3125 z M 976.8125,133.3125 L 970.84375,144.375 L 970.84375,146.375 L 976.8125,135.3125 L 980.09375,135.3125 L 981.25,133.3125 L 976.8125,133.3125 z M 984.46875,133.3125 L 984.46875,135.3125 L 988.59375,135.3125 L 988.59375,133.3125 L 984.46875,133.3125 z M 1008.625,133.3125 L 1008.625,135.3125 L 1023.125,135.3125 L 1023.125,133.3125 L 1008.625,133.3125 z M 1028.4688,133.3125 L 1023.3438,160 L 1023.7188,160 L 1028.4688,135.3125 L 1034.0938,135.3125 L 1039.0938,160 L 1039.5,160 L 1034.0938,133.3125 L 1028.4688,133.3125 z M 1042.3438,133.3125 L 1042.3438,135.3125 L 1046.5,135.3125 L 1053.2188,151.90625 L 1053.2188,149.90625 L 1046.5,133.3125 L 1042.3438,133.3125 z M 1053.2188,133.3125 L 1053.2188,135.3125 L 1057.1562,135.3125 L 1057.1562,133.3125 L 1053.2188,133.3125 z M 996.65625,140.5625 C 996.55264,140.85767 996.5,141.18155 996.5,141.53125 C 996.49999,142.51794 996.87833,143.38752 997.625,144.1875 C 997.78499,144.37418 997.92458,144.55418 998.03125,144.6875 C 998.16456,144.82086 998.31791,144.9696 998.53125,145.15625 C 998.77126,145.31627 999.09541,145.55502 999.46875,145.875 C 999.86871,146.16835 1000.4362,146.59168 1001.1562,147.125 C 1001.7162,147.57835 1002.1938,147.96126 1002.5938,148.28125 C 1002.9937,148.60126 1003.3317,148.89418 1003.625,149.1875 C 1003.9183,149.45418 1004.1975,149.72876 1004.4375,149.96875 C 1004.6775,150.20875 1004.8804,150.45209 1005.0938,150.71875 C 1005.6271,151.38543 1006.0505,152.14668 1006.3438,153 C 1006.5419,153.51179 1006.6745,154.0513 1006.75,154.59375 C 1006.7924,154.27355 1006.8125,153.93514 1006.8125,153.59375 C 1006.8125,152.68709 1006.6638,151.82667 1006.3438,151 C 1006.0505,150.14668 1005.6271,149.38543 1005.0938,148.71875 C 1004.8804,148.45209 1004.6775,148.20875 1004.4375,147.96875 C 1004.1975,147.72876 1003.9183,147.45418 1003.625,147.1875 C 1003.3317,146.89418 1002.9937,146.60126 1002.5938,146.28125 C 1002.1938,145.96126 1001.7162,145.57835 1001.1562,145.125 C 1000.4362,144.59168 999.86871,144.16835 999.46875,143.875 C 999.09541,143.55502 998.77126,143.31627 998.53125,143.15625 C 998.31791,142.9696 998.16456,142.82086 998.03125,142.6875 C 997.92458,142.55418 997.78499,142.37418 997.625,142.1875 C 997.1494,141.67794 996.82891,141.14781 996.65625,140.5625 z M 942.25,142.34375 C 942.13,143.34375 941.855,144.07126 941.375,144.53125 C 940.76166,145.11793 939.62205,145.40627 937.96875,145.40625 L 936.15625,145.40625 L 936.15625,147.40625 L 937.96875,147.40625 C 939.62205,147.40627 940.76166,147.11793 941.375,146.53125 C 942.015,145.91793 942.31249,144.82335 942.3125,143.25 C 942.3125,142.92941 942.2775,142.6231 942.25,142.34375 z M 976.0625,144.21875 L 975.59375,145 L 981.3125,160 L 982.0625,160 L 976.0625,144.21875 z M 953.84375,150.40625 L 953.46875,152.40625 L 957.84375,152.40625 L 957.46875,150.40625 L 953.84375,150.40625 z M 1029.4688,150.40625 L 1029.0938,152.40625 L 1033.4688,152.40625 L 1033.0938,150.40625 L 1029.4688,150.40625 z M 995.375,151.71875 L 991.4375,152.875 C 991.54698,153.53895 991.66879,154.17398 991.84375,154.75 L 995.375,153.71875 C 995.88165,156.91876 997.25999,158.53125 999.5,158.53125 C 1000.4067,158.53125 1001.1587,158.2475 1001.7188,157.6875 C 1002.2787,157.12751 1002.5312,156.37542 1002.5312,155.46875 C 1002.5313,155.11422 1002.4983,154.7993 1002.4062,154.5 C 1002.2711,154.95361 1002.0506,155.35564 1001.7188,155.6875 C 1001.1587,156.2475 1000.4067,156.53125 999.5,156.53125 C 997.25999,156.53125 995.88165,154.91876 995.375,151.71875 z M 938.5625,172.90625 C 937.54916,172.90628 936.60332,173.08629 935.75,173.40625 C 934.89666,173.72628 934.17583,174.16337 933.5625,174.75 C 932.94916,175.33669 932.47166,176.04377 932.125,176.84375 C 931.77833,177.64377 931.59377,178.50877 931.59375,179.46875 C 931.59375,179.81299 931.61483,180.14131 931.65625,180.46875 C 931.73642,179.89431 931.9042,179.3533 932.125,178.84375 C 932.47166,178.04377 932.94916,177.33669 933.5625,176.75 C 934.17583,176.16337 934.89666,175.72628 935.75,175.40625 C 936.60332,175.08629 937.54916,174.90628 938.5625,174.90625 C 941.83626,174.90628 944.12132,176.54444 945.4375,179.78125 L 946.03125,179.59375 C 944.88457,175.14044 942.40249,172.90628 938.5625,172.90625 z M 949.0625,173.3125 L 949.0625,175.3125 L 953.1875,175.3125 L 953.1875,173.3125 L 949.0625,173.3125 z M 959.0625,173.3125 L 959.0625,175.3125 L 963.1875,175.3125 L 963.1875,173.3125 L 959.0625,173.3125 z M 967.1875,173.3125 L 967.1875,175.3125 L 973.625,175.3125 C 974.85168,175.31252 975.89207,175.45211 976.71875,175.71875 C 977.5454,175.95878 978.26624,176.34628 978.90625,176.90625 C 980.27822,178.07246 981.05447,179.74803 981.25,181.875 C 981.27077,181.57862 981.3125,181.28382 981.3125,180.96875 C 981.31248,178.30211 980.50622,176.26627 978.90625,174.90625 C 978.26624,174.34628 977.5454,173.95878 976.71875,173.71875 C 975.89207,173.45211 974.85168,173.31252 973.625,173.3125 L 967.1875,173.3125 z M 983.5,173.3125 L 983.9375,175.3125 L 987.78125,175.3125 L 991.78125,195.59375 L 995.28125,175.3125 L 999.125,175.3125 L 999.5,173.3125 L 995.28125,173.3125 L 991.78125,193.59375 L 987.78125,173.3125 L 983.5,173.3125 z M 1002.1875,173.3125 L 1002.1875,175.3125 L 1014.2812,175.3125 L 1014.2812,173.3125 L 1002.1875,173.3125 z M 1015.75,173.3125 L 1016.5,175.3125 L 1020.3125,175.3125 L 1023.875,186.59375 L 1027.5625,175.3125 L 1031.2812,175.3125 L 1032.0312,173.3125 L 1027.5625,173.3125 L 1023.875,184.59375 L 1020.3125,173.3125 L 1015.75,173.3125 z M 936.03125,180.5625 C 935.92764,180.85767 935.875,181.18155 935.875,181.53125 C 935.87499,182.51794 936.25333,183.38752 937,184.1875 C 937.15999,184.37418 937.29958,184.55418 937.40625,184.6875 C 937.53956,184.82086 937.69291,184.9696 937.90625,185.15625 C 938.14626,185.31627 938.47041,185.55502 938.84375,185.875 C 939.24371,186.16835 939.81124,186.59168 940.53125,187.125 C 941.09122,187.57835 941.56874,187.96126 941.96875,188.28125 C 942.36872,188.60126 942.70665,188.89418 943,189.1875 C 943.29332,189.45418 943.57249,189.72876 943.8125,189.96875 C 944.0525,190.20875 944.2554,190.45209 944.46875,190.71875 C 945.00209,191.38543 945.4254,192.14668 945.71875,193 C 945.91687,193.51179 946.04954,194.0513 946.125,194.59375 C 946.16737,194.27355 946.18749,193.93514 946.1875,193.59375 C 946.18748,192.68709 946.03876,191.82667 945.71875,191 C 945.4254,190.14668 945.00209,189.38543 944.46875,188.71875 C 944.2554,188.45209 944.0525,188.20875 943.8125,187.96875 C 943.57249,187.72876 943.29332,187.45418 943,187.1875 C 942.70665,186.89418 942.36872,186.60126 941.96875,186.28125 C 941.56874,185.96126 941.09122,185.57835 940.53125,185.125 C 939.81124,184.59168 939.24371,184.16835 938.84375,183.875 C 938.47041,183.55502 938.14626,183.31627 937.90625,183.15625 C 937.69291,182.9696 937.53956,182.82086 937.40625,182.6875 C 937.29958,182.55418 937.15999,182.37418 937,182.1875 C 936.5244,181.67794 936.20391,181.14781 936.03125,180.5625 z M 976.96875,182.1875 C 976.84375,183.15251 976.53124,183.90627 976.03125,184.40625 C 975.71124,184.72627 975.32375,184.96043 974.84375,185.09375 C 974.39041,185.20043 973.72375,185.25 972.84375,185.25 L 971.3125,185.25 L 971.3125,187.25 L 972.84375,187.25 C 973.72375,187.25 974.39041,187.20043 974.84375,187.09375 C 975.32375,186.96043 975.71124,186.72627 976.03125,186.40625 C 976.69791,185.73961 977.03124,184.6496 977.03125,183.15625 C 977.03125,182.81173 977.00554,182.48788 976.96875,182.1875 z M 1006.3125,184.15625 L 1006.3125,186.15625 L 1012.1875,186.15625 L 1012.1875,184.15625 L 1006.3125,184.15625 z M 978.25,189.5625 C 978.07628,189.67219 977.90728,189.77864 977.71875,189.875 L 980.96875,200 L 981.625,200 L 978.25,189.5625 z M 934.75,191.71875 L 930.8125,192.875 C 930.92198,193.53895 931.04379,194.17398 931.21875,194.75 L 934.75,193.71875 C 935.25665,196.91876 936.63499,198.53125 938.875,198.53125 C 939.78166,198.53125 940.53374,198.2475 941.09375,197.6875 C 941.65372,197.12751 941.90624,196.37542 941.90625,195.46875 C 941.90626,195.11422 941.87331,194.7993 941.78125,194.5 C 941.64605,194.95361 941.4256,195.35564 941.09375,195.6875 C 940.53374,196.2475 939.78166,196.53125 938.875,196.53125 C 936.63499,196.53125 935.25665,194.91876 934.75,191.71875 z M 953.1875,192.09375 L 953.1875,194.09375 C 953.18752,195.69376 953.42166,196.83792 953.875,197.53125 C 954.3283,198.19792 955.08958,198.53125 956.15625,198.53125 C 957.19624,198.53125 957.95291,198.19792 958.40625,197.53125 C 958.85958,196.83792 959.06249,195.69376 959.0625,194.09375 L 959.0625,192.09375 C 959.06249,193.69376 958.85958,194.83792 958.40625,195.53125 C 957.95291,196.19792 957.19624,196.53125 956.15625,196.53125 C 955.08958,196.53125 954.3283,196.19792 953.875,195.53125 C 953.42166,194.83792 953.18752,193.69376 953.1875,192.09375 z M 1006.3125,196.1875 L 1006.3125,198.1875 L 1014.2812,198.1875 L 1014.2812,196.1875 L 1006.3125,196.1875 z"
             style="font-size:40px;font-style:normal;font-variant:normal;font-weight:normal;font-stretch:normal;text-indent:0;text-align:start;text-decoration:none;line-height:100%;letter-spacing:normal;word-spacing:normal;text-transform:none;direction:ltr;block-progression:tb;writing-mode:lr-tb;text-anchor:start;fill:#090906;fill-opacity:1;fill-rule:nonzero;stroke:none;stroke-width:0.97799516;marker:none;visibility:visible;display:inline;overflow:visible;enable-background:accumulate;font-family:Alternate Gothic LT No3;-inkscape-font-specification:Alternate Gothic LT No3"
             inkscape:connector-curvature="0" />
        </g>
        <path
           style="fill:#3b3b30;fill-opacity:1;fill-rule:nonzero;stroke:#ffffff;stroke-width:4;stroke-linecap:butt;stroke-linejoin:miter;marker:none;stroke-miterlimit:4;stroke-dasharray:none;stroke-dashoffset:0;stroke-opacity:0.0627451;visibility:visible;display:inline;overflow:visible;enable-background:accumulate"
           d="M 1065.1962,50 L 1062.4625,51.106475 L 1061.7792,52.72553 L 1060.2413,53.06726 L 1059.3952,54.09239 L 1058.1992,54.775805 L 1057.0846,55.02803 L 1056.4907,55.45922 L 1057.1741,56.565725 L 1056.0676,57.932555 L 1054.7008,57.84308 L 1053.8466,59.47025 L 1053.6757,60.576755 L 1055.3842,61.170665 L 1058.541,63.220925 L 1057.4263,65.2712 L 1057.345,67.65503 L 1056.6616,68.2571 L 1055.8967,70.128365 L 1054.6113,70.047005 L 1054.2696,71.15348 L 1051.8857,70.640945 L 1051.2023,72.089135 L 1048.3873,72.259985 L 1047.7039,72.86204 L 1042.7572,72.772565 L 1035.1664,72.089135 L 1032.1887,71.308085 L 1031.5785,70.73042 L 1029.7885,70.673465 L 1029.0237,70.470065 L 1027.25,70.592105 L 1026.3796,70.55957 L 1026.1192,71.49521 L 1024.9232,72.089135 L 1024.8418,73.203755 L 1026.3796,74.058035 L 1026.4609,75.335375 L 1027.3966,75.416735 L 1027.3966,76.61273 L 1027.8277,77.38565 L 1032.2619,78.32129 L 1032.091,79.76948 L 1032.6849,79.598615 L 1033.6287,80.200685 L 1033.1161,82.58453 L 1034.2227,84.545285 L 1036.3542,85.48907 L 1036.525,87.278963 L 1034.7352,87.962405 L 1033.0104,89.353643 L 1030.4719,88.987523 L 1028.6819,91.54222 L 1027.2256,92.73821 L 1024.7524,93.07991 L 1023.2229,92.05477 L 1022.1082,92.31514 L 1022.1976,93.16127 L 1021.0831,93.59249 L 1020.9121,92.65685 L 1018.0158,92.48599 L 1015.5424,94.44674 L 1015.3716,95.64274 L 1016.2258,96.57837 L 1016.2258,97.51402 L 1013.6631,99.30392 L 1013.4922,100.07683 L 1014.436,101.10197 L 1013.0691,104.93399 L 1010.254,105.19436 L 1008.5455,106.90291 L 1009.0581,108.69283 L 1009.5706,111.67871 L 1008.8872,114.32291 L 1009.652,116.03147 L 1009.5706,116.96708 L 1009.9123,119.86349 L 1011.3605,119.86349 L 1012.638,119.35906 L 1016.4781,120.29471 L 1017.674,120.12383 L 1017.8449,119.09871 L 1018.87,117.90272 L 1021.3433,118.07359 L 1023.052,118.16307 L 1023.2229,119.09871 L 1024.5815,119.95299 L 1023.7271,120.80727 L 1024.2399,122.00326 L 1025.6066,121.57205 L 1025.1835,124.13486 L 1024.9232,126.00614 L 1025.6066,126.94991 L 1025.0126,127.7147 L 1024.2399,129.42324 L 1026.8839,130.35888 L 1027.7382,132.92172 L 1028.5926,133.26344 L 1029.5281,131.89658 L 1032.514,131.38401 L 1033.5392,130.35888 L 1034.5643,133.17392 L 1033.6287,134.28855 L 1033.8809,135.05333 L 1032.6036,139.06436 L 1033.1974,140 L 1034.5643,139.82914 L 1034.312,138.72266 L 1034.6538,137.69753 L 1037.7211,137.18496 L 1038.2336,136.76189 L 1037.5502,136.07847 L 1038.0628,135.73676 L 1038.7462,134.36991 L 1037.9813,134.0282 L 1037.8105,132.49051 L 1036.7854,127.7147 L 1035.0769,125.50172 L 1034.9954,124.13486 L 1033.7995,123.19111 L 1033.0266,120.80727 L 1033.7995,119.61128 L 1033.7101,118.50478 L 1030.6427,115.08769 L 1030.301,113.81033 L 1031.2367,112.1018 L 1032.514,111.67871 L 1033.1974,110.05966 L 1034.4829,110.14101 L 1035.6708,108.86366 L 1036.525,108.52196 L 1037.892,105.78828 L 1038.4941,105.44657 L 1039.9422,106.90291 L 1040.5362,106.56119 L 1039.0879,103.74616 L 1039.7713,103.65667 L 1040.2838,100.58941 L 1039.3401,99.30392 L 1040.3653,98.28693 L 1041.3904,97.43265 L 1042.8387,94.86981 L 1044.2055,93.07991 L 1046.5973,92.73821 L 1047.7852,91.80257 L 1048.8103,90.26488 L 1048.0456,89.410595 L 1046.5079,89.23973 L 1045.4014,88.474955 L 1043.4406,89.670938 L 1044.0346,88.72718 L 1042.6677,88.304108 L 1041.9029,86.676917 L 1040.9347,85.903985 L 1040.9592,85.37516 L 1041.8134,84.63479 L 1042.928,84.71615 L 1044.2055,83.609645 L 1044.2055,82.84487 L 1044.8888,83.438795 L 1046.5973,83.528285 L 1047.1099,81.217685 L 1048.2164,81.04682 L 1050.3481,81.47804 L 1051.5441,81.47804 L 1052.4797,82.33232 L 1057.2555,80.87597 L 1056.4907,80.371535 L 1056.6616,79.858985 L 1057.768,80.02982 L 1058.0284,79.17554 L 1056.8325,78.573485 L 1056.8325,77.556485 L 1058.0284,77.556485 L 1062.2917,80.452895 L 1063.74,79.086065 L 1064.8544,79.51727 L 1067.2383,79.598615 L 1069.1178,81.99059 L 1069.5408,81.136325 L 1070.4846,81.81974 L 1071.5016,81.47804 L 1071.5016,80.62376 L 1075,80.200685 L 1075,79.004705 L 1073.5518,79.004705 L 1072.3558,78.06092 L 1071.9328,79.004705 L 1071.2494,79.004705 L 1071.1679,78.231785 L 1070.8262,78.32129 L 1070.3137,78.492125 L 1069.0282,78.66299 L 1068.0112,78.150425 L 1066.4736,76.87307 L 1066.5548,76.10015 L 1064.2523,74.399735 L 1064.3419,73.114265 L 1063.146,71.918285 L 1063.3168,70.81178 L 1063.0564,70.21787 L 1063.6585,69.021875 L 1064.4233,66.971615 L 1066.4736,65.946485 L 1067.0674,65.2712 L 1067.9218,63.904355 L 1069.5408,63.302285 L 1070.395,62.366645 L 1070.9971,61.431035 L 1069.7116,61.431035 L 1069.5408,60.3164 L 1070.1428,58.9577 L 1070.1428,57.672215 L 1070.4846,57.76172 L 1072.1849,56.05316 L 1072.4453,54.43409 L 1071.6724,53.408975 L 1069.199,53.327615 L 1067.1569,51.017 L 1065.1962,50 z"
           id="path3606"
           inkscape:connector-curvature="0" />
      </g>
    </g>
    <path
       style="opacity:1;fill:#383830;fill-opacity:0.95686275;fill-rule:nonzero;stroke:none;stroke-width:0.97799516;stroke-linecap:butt;stroke-linejoin:miter;marker:none;marker-start:none;marker-mid:none;marker-end:none;stroke-miterlimit:4;stroke-dasharray:none;stroke-dashoffset:0;stroke-opacity:1;visibility:visible;display:inline;overflow:visible;enable-background:accumulate"
       d="M 240 310 L 240 390 L 310 390 L 320 400 L 330 390 L 400 390 L 400 310 L 240 310 z "
       id="rect4354" />
  </g>
</svg>
